<?xml version="1.0" encoding="UTF-8" standalone="no"?>
<!-- Created with Inkscape (http://www.inkscape.org/) -->

<svg
   xmlns:dc="http://purl.org/dc/elements/1.1/"
   xmlns:cc="http://creativecommons.org/ns#"
   xmlns:rdf="http://www.w3.org/1999/02/22-rdf-syntax-ns#"
   xmlns:svg="http://www.w3.org/2000/svg"
   xmlns="http://www.w3.org/2000/svg"
   xmlns:sodipodi="http://sodipodi.sourceforge.net/DTD/sodipodi-0.dtd"
   xmlns:inkscape="http://www.inkscape.org/namespaces/inkscape"
   width="200mm"
   height="200mm"
   viewBox="0 0 200 200"
   version="1.1"
   id="svg8"
   sodipodi:docname="matchmakingBlancoSub.svg"
   inkscape:export-filename="V:\diego\Pictures\mmnegro.png"
   inkscape:export-xdpi="685.26801"
   inkscape:export-ydpi="685.26801"
   inkscape:version="0.92.5 (2060ec1f9f, 2020-04-08)">
  <defs
     id="defs2">
    <inkscape:path-effect
       effect="bspline"
       id="path-effect5200"
       is_visible="true"
       weight="33.333333"
       steps="2"
       helper_size="0"
       apply_no_weight="true"
       apply_with_weight="true"
       only_selected="false" />
    <inkscape:path-effect
       effect="bspline"
       id="path-effect5058"
       is_visible="true"
       weight="33.333333"
       steps="2"
       helper_size="0"
       apply_no_weight="true"
       apply_with_weight="true"
       only_selected="false" />
    <inkscape:path-effect
       effect="bspline"
       id="path-effect5004"
       is_visible="true"
       weight="33.333333"
       steps="2"
       helper_size="0"
       apply_no_weight="true"
       apply_with_weight="true"
       only_selected="false" />
    <inkscape:path-effect
       effect="bspline"
       id="path-effect4973"
       is_visible="true"
       weight="33.333333"
       steps="2"
       helper_size="0"
       apply_no_weight="true"
       apply_with_weight="true"
       only_selected="false" />
    <inkscape:path-effect
       effect="bspline"
       id="path-effect4969"
       is_visible="true"
       weight="33.333333"
       steps="2"
       helper_size="0"
       apply_no_weight="true"
       apply_with_weight="true"
       only_selected="false" />
    <inkscape:path-effect
       effect="bspline"
       id="path-effect4947"
       is_visible="true"
       weight="33.333333"
       steps="2"
       helper_size="0"
       apply_no_weight="true"
       apply_with_weight="true"
       only_selected="false" />
    <inkscape:path-effect
       effect="bspline"
       id="path-effect871"
       is_visible="true"
       weight="33.333333"
       steps="2"
       helper_size="0"
       apply_no_weight="true"
       apply_with_weight="true"
       only_selected="false" />
    <inkscape:path-effect
       effect="bspline"
       id="path-effect848"
       is_visible="true"
       weight="33.333333"
       steps="2"
       helper_size="0"
       apply_no_weight="true"
       apply_with_weight="true"
       only_selected="false" />
    <inkscape:path-effect
       effect="bspline"
       id="path-effect848-0"
       is_visible="true"
       weight="33.333333"
       steps="2"
       helper_size="0"
       apply_no_weight="true"
       apply_with_weight="true"
       only_selected="false" />
    <inkscape:path-effect
       effect="bspline"
       id="path-effect4947-0"
       is_visible="true"
       weight="33.333333"
       steps="2"
       helper_size="0"
       apply_no_weight="true"
       apply_with_weight="true"
       only_selected="false" />
    <inkscape:path-effect
       effect="bspline"
       id="path-effect4947-1"
       is_visible="true"
       weight="33.333333"
       steps="2"
       helper_size="0"
       apply_no_weight="true"
       apply_with_weight="true"
       only_selected="false" />
    <inkscape:path-effect
       effect="bspline"
       id="path-effect4947-1-5"
       is_visible="true"
       weight="33.333333"
       steps="2"
       helper_size="0"
       apply_no_weight="true"
       apply_with_weight="true"
       only_selected="false" />
    <inkscape:path-effect
       effect="bspline"
       id="path-effect4947-1-1"
       is_visible="true"
       weight="33.333333"
       steps="2"
       helper_size="0"
       apply_no_weight="true"
       apply_with_weight="true"
       only_selected="false" />
    <inkscape:path-effect
       effect="bspline"
       id="path-effect4947-1-1-9"
       is_visible="true"
       weight="33.333333"
       steps="2"
       helper_size="0"
       apply_no_weight="true"
       apply_with_weight="true"
       only_selected="false" />
    <inkscape:path-effect
       effect="bspline"
       id="path-effect5058-0"
       is_visible="true"
       weight="33.333333"
       steps="2"
       helper_size="0"
       apply_no_weight="true"
       apply_with_weight="true"
       only_selected="false" />
    <inkscape:path-effect
       effect="bspline"
       id="path-effect4947-1-0"
       is_visible="true"
       weight="33.333333"
       steps="2"
       helper_size="0"
       apply_no_weight="true"
       apply_with_weight="true"
       only_selected="false" />
    <inkscape:path-effect
       effect="bspline"
       id="path-effect5004-7"
       is_visible="true"
       weight="33.333333"
       steps="2"
       helper_size="0"
       apply_no_weight="true"
       apply_with_weight="true"
       only_selected="false" />
    <inkscape:path-effect
       effect="bspline"
       id="path-effect4969-6"
       is_visible="true"
       weight="33.333333"
       steps="2"
       helper_size="0"
       apply_no_weight="true"
       apply_with_weight="true"
       only_selected="false" />
    <inkscape:path-effect
       effect="bspline"
       id="path-effect4947-2"
       is_visible="true"
       weight="33.333333"
       steps="2"
       helper_size="0"
       apply_no_weight="true"
       apply_with_weight="true"
       only_selected="false" />
  </defs>
  <sodipodi:namedview
     id="base"
     pagecolor="#ffffff"
     bordercolor="#666666"
     borderopacity="1.0"
     inkscape:pageopacity="0.0"
     inkscape:pageshadow="2"
     inkscape:zoom="0.5"
     inkscape:cx="399.32093"
     inkscape:cy="425.65031"
     inkscape:document-units="mm"
     inkscape:current-layer="text891"
     showgrid="true"
     inkscape:window-width="1366"
     inkscape:window-height="715"
     inkscape:window-x="-8"
     inkscape:window-y="-8"
     inkscape:window-maximized="1"
     showguides="true"
     inkscape:guide-bbox="true">
    <inkscape:grid
       type="xygrid"
       id="grid867" />
    <sodipodi:guide
       position="87.3125,174.625"
       orientation="0,1"
       id="guide4641"
       inkscape:locked="false" />
    <sodipodi:guide
       position="58.208333,89.958334"
       orientation="1,0"
       id="guide4643"
       inkscape:locked="false" />
    <sodipodi:guide
       position="79.375,89.958334"
       orientation="1,0"
       id="guide4647"
       inkscape:locked="false" />
    <sodipodi:guide
       position="100.54166,140.22917"
       orientation="1,0"
       id="guide4649"
       inkscape:locked="false" />
    <sodipodi:guide
       position="142.875,116.41667"
       orientation="1,0"
       id="guide4653"
       inkscape:locked="false" />
    <sodipodi:guide
       position="76.729167,92.604167"
       orientation="0,1"
       id="guide4670"
       inkscape:locked="false" />
    <sodipodi:guide
       position="52.916667,113.77083"
       orientation="0,1"
       id="guide4702"
       inkscape:locked="false" />
    <sodipodi:guide
       position="82.020834,153.45833"
       orientation="0,1"
       inkscape:locked="false"
       id="guide4704" />
    <sodipodi:guide
       position="89.958331,148.16667"
       orientation="1,0"
       id="guide4706"
       inkscape:locked="false" />
    <sodipodi:guide
       position="111.125,15.875"
       orientation="1,0"
       id="guide4708"
       inkscape:locked="false" />
    <sodipodi:guide
       position="58.208332,185.20834"
       orientation="0,1"
       id="guide4712"
       inkscape:locked="false" />
    <sodipodi:guide
       position="116.41666,195.79167"
       orientation="1,0"
       id="guide4731"
       inkscape:locked="false" />
    <sodipodi:guide
       position="84.666665,195.79167"
       orientation="1,0"
       id="guide4733"
       inkscape:locked="false" />
    <sodipodi:guide
       position="55.5625,134.9375"
       orientation="1,0"
       id="guide4735"
       inkscape:locked="false" />
    <sodipodi:guide
       position="145.52083,134.9375"
       orientation="1,0"
       id="guide4737"
       inkscape:locked="false" />
    <sodipodi:guide
       position="95.249998,134.9375"
       orientation="1,0"
       id="guide4794"
       inkscape:locked="false" />
    <sodipodi:guide
       position="100.54166,145.52083"
       orientation="0,1"
       id="guide4796"
       inkscape:locked="false" />
    <sodipodi:guide
       position="105.83333,103.1875"
       orientation="1,0"
       id="guide4798"
       inkscape:locked="false" />
    <sodipodi:guide
       position="105.83333,68.791666"
       orientation="0.70710678,0.70710678"
       id="guide4815"
       inkscape:locked="false" />
    <sodipodi:guide
       position="96.572917,136.78958"
       orientation="0.70710678,0.70710678"
       id="guide4817"
       inkscape:locked="false" />
    <sodipodi:guide
       position="105.83333,68.791666"
       orientation="-0.70710678,0.70710678"
       id="guide4819"
       inkscape:locked="false" />
    <sodipodi:guide
       position="125.14792,171.71458"
       orientation="-0.70710678,0.70710678"
       inkscape:locked="false"
       id="guide4821" />
    <sodipodi:guide
       position="92.86875,117.21042"
       orientation="0.70710678,0.70710678"
       id="guide5006"
       inkscape:locked="false" />
    <sodipodi:guide
       position="119.0625,195.79167"
       orientation="0,1"
       id="guide5208"
       inkscape:locked="false" />
    <sodipodi:guide
       position="105.83333,68.791666"
       orientation="1,0"
       id="guide901"
       inkscape:locked="false" />
  </sodipodi:namedview>
  <metadata
     id="metadata5">
    <rdf:RDF>
      <cc:Work
         rdf:about="">
        <dc:format>image/svg+xml</dc:format>
        <dc:type
           rdf:resource="http://purl.org/dc/dcmitype/StillImage" />
        <dc:title />
      </cc:Work>
    </rdf:RDF>
  </metadata>
  <g
     inkscape:groupmode="layer"
     id="layer2"
     inkscape:label="Dibujo"
     style="display:inline"
     transform="translate(0,-97)">
    <circle
       style="display:inline;opacity:1;fill:#ffffff;fill-opacity:1;fill-rule:nonzero;stroke:none;stroke-width:0.2808032;stroke-linecap:butt;stroke-linejoin:round;stroke-miterlimit:4;stroke-dasharray:none;stroke-opacity:1;paint-order:normal"
       id="path4575-8-0-1"
       cx="53.313786"
       cy="120.89843"
       r="14.859169" />
    <circle
       style="display:inline;opacity:1;fill:#ffffff;fill-opacity:1;fill-rule:nonzero;stroke:none;stroke-width:0.2808032;stroke-linecap:butt;stroke-linejoin:round;stroke-miterlimit:4;stroke-dasharray:none;stroke-opacity:1;paint-order:normal"
       id="path4575-8-0-1-8"
       cx="143.35744"
       cy="120.96534"
       r="14.859169" />
    <path
       style="fill:#ffffff;fill-opacity:1;stroke:none;stroke-width:0.26458332px;stroke-linecap:butt;stroke-linejoin:miter;stroke-opacity:1"
       d="m -82.024308,139.47848 c 3.950958,4.39144 4.832808,5.09692 5.53845,5.4938 0.705642,0.39688 1.230384,0.48433 1.675072,0.52878 0.444687,0.0445 0.794514,0.0445 1.235512,-0.0438 0.440998,-0.0882 0.970166,-0.26463 1.543404,-0.66158 0.573238,-0.39696 1.190596,-1.01432 4.868938,-5.14068 3.678342,-4.12636 10.417282,-11.76126 14.184024,-15.88777 3.766742,-4.12652 4.560449,-4.74385 5.309986,-5.18472 0.749536,-0.44087 1.455351,-0.70555 2.028507,-0.88188 0.573156,-0.17634 1.014331,-0.26458 1.587344,-0.35273 0.573014,-0.0881 1.279059,-0.17641 1.940354,-0.17639 0.661294,1e-5 1.278913,0.0883 1.984293,0.2646 0.70538,0.17635 1.499416,0.44103 2.204873,0.74967 0.705458,0.30864 1.322943,0.66149 1.940209,1.19058 0.617266,0.52908 1.234716,1.23474 1.675482,1.7196 0.440766,0.48487 0.705776,0.74988 0.970331,1.19078 0.264556,0.44091 0.529139,1.05827 0.74965,1.76387 0.220511,0.70561 0.396864,1.4992 0.48508,2.33712 0.08822,0.83792 0.08822,1.71964 0.08822,2.97822 0,1.25858 0,2.89282 0,12.72796 0,9.83514 0,27.86485 0,37.18986 0,9.325 0,9.94235 -0.04409,10.51571 -0.04409,0.57336 -0.132248,1.1023 -0.352787,1.76398 -0.220539,0.66167 -0.573117,1.45497 -0.970045,2.16066 -0.396927,0.70569 -0.837721,1.3228 -1.455245,1.98445 -0.617525,0.66166 -1.410887,1.36688 -2.337096,1.89618 -0.926209,0.5293 -1.984168,0.88195 -2.689784,1.10246 -0.705616,0.22052 -1.058278,0.30869 -1.676052,0.35282 -0.617773,0.0441 -1.498942,0.0441 -2.381065,-0.0882 -0.882124,-0.1323 -1.763807,-0.39681 -2.601785,-0.79374 -0.837978,-0.39693 -1.631573,-0.92599 -2.381274,-1.49929 -0.749702,-0.57331 -1.455201,-1.19062 -2.028506,-1.94035 -0.573306,-0.74972 -1.014266,-1.63164 -1.322932,-2.46949 -0.308666,-0.83784 -0.485077,-1.63169 -0.573249,-2.86624 -0.08817,-1.23455 -0.08817,-2.91066 -0.08817,-6.79073 0,-3.88008 0,-9.96645 0,-13.31783 0,-3.35138 0,-3.96876 -0.0441,-4.45372 -0.0441,-0.48495 -0.132334,-0.83788 -0.15421,-2.16774 -0.02188,-1.32986 0.01664,-3.33146 -0.524375,-4.37693 -0.541014,-1.04547 -1.406579,-0.64444 -2.436089,0.0284 -1.02951,0.67286 -2.086924,1.55404 -3.674859,3.00963 -1.587935,1.45559 -3.703765,3.48325 -5.276843,5.1481 -1.573078,1.66485 -2.601764,2.96523 -3.73387,3.88053 -1.132105,0.91529 -2.366539,1.44434 -3.292592,1.75306 -0.926053,0.30873 -1.543121,0.39688 -2.293163,0.39692 -0.750042,3e-5 -1.631328,-0.0881 -2.601766,-0.30863 -0.970437,-0.22053 -2.028328,-0.57316 -2.910483,-1.10244 -0.882155,-0.52927 -1.587606,-1.23472 -2.881063,-2.5025 -1.293458,-1.26778 -3.174816,-3.09778 -4.865154,-4.71834 -1.690339,-1.62057 -3.189642,-3.03168 -4.453812,-4.18923 -1.26417,-1.15756 -2.102656,-1.89417 -2.738792,0.0875 -0.636137,1.98171 -0.672317,5.44249 -0.69453,10.78684 -0.02221,5.34436 -0.02221,11.78126 -0.02221,15.26496 0,3.48369 0,4.01283 -0.132305,4.67446 -0.132304,0.66164 -0.396754,1.45499 -0.784784,2.27816 -0.388031,0.82318 -0.934807,1.73447 -1.199484,2.1756 -0.264677,0.44113 -1.852177,2.02863 -2.337332,2.29326 -0.485153,0.26463 -1.454803,0.79353 -2.380993,1.14639 -0.9262,0.35287 -1.80785,0.5292 -2.68997,0.61742 -0.88212,0.0882 -1.76376,0.0882 -2.77823,-0.13229 -1.01446,-0.22053 -2.16066,-0.66137 -3.30731,-1.36701 -1.14666,-0.70563 -2.29304,-1.67565 -3.16607,-2.76023 -0.87302,-1.08458 -1.5083,-2.35513 -1.81696,-3.4576 -0.30865,-1.10247 -0.30865,-2.07269 -0.30865,-12.65327 0,-10.58058 0,-30.78261 0.0441,-41.32185 0.0441,-10.53925 0.13231,-11.4212 0.39295,-12.33845 0.26063,-0.91724 0.70962,-1.90501 1.37349,-2.87772 0.66387,-0.97271 1.5411,-1.93766 2.2466,-2.59903 0.70551,-0.66137 1.23483,-1.01425 1.86477,-1.3276 0.62995,-0.31336 1.31034,-0.56851 2.19203,-0.74483 0.88169,-0.17632 1.94051,-0.26456 2.8664,-0.22045 0.92588,0.0441 1.71985,0.22054 2.33713,0.39692 0.61727,0.17637 1.05835,0.3528 1.54332,0.57325 0.48498,0.22044 1.01431,0.48511 4.788338,4.6555 3.774027,4.17039 10.792267,12.24576 14.743224,16.6372 z"
       id="path5198"
       inkscape:connector-curvature="0"
       inkscape:path-effect="#path-effect5200"
       inkscape:original-d="m -78.955426,143.16426 c 0.882309,0.70537 1.76416,1.41085 2.645833,2.11667 0.529432,0.0879 1.05417,0.17538 1.5875,0.26458 0.355994,-2.6e-4 0.705821,-2.6e-4 1.058334,0 0.52943,-0.17665 1.058597,-0.35304 1.5875,-0.52916 0.617626,-0.61763 1.234984,-1.23499 1.852083,-1.85209 6.739602,-7.63561 13.478545,-15.2705 20.217927,-22.90593 0.789672,-0.62329 1.587764,-1.23498 2.38125,-1.85208 0.705559,-0.26475 1.411374,-0.52943 2.116666,-0.79375 0.441037,-0.0884 0.882208,-0.17665 1.322917,-0.26458 0.705331,-0.0884 1.411375,-0.17666 2.116667,-0.26459 0.617368,0.0879 1.234987,0.17613 1.852083,0.26459 0.793729,0.26422 1.587764,0.5289 2.38125,0.79375 0.617503,0.35244 1.234987,0.70529 1.852083,1.05833 0.61754,0.70519 1.234988,1.41085 1.852083,2.11667 0.261171,0.26714 0.529432,0.5289 0.79375,0.79375 0.264848,0.61709 0.529432,1.23445 0.79375,1.85208 0.176689,0.79365 0.353042,1.58724 0.529167,2.38125 2.65e-4,0.8819 2.65e-4,1.76362 0,2.64583 2.65e-4,1.63495 2.65e-4,3.26919 0,4.90418 2.65e-4,18.03529 2.65e-4,36.065 0,54.09791 2.65e-4,0.6171 2.65e-4,1.23445 0,1.85208 -0.08797,0.52913 -0.176125,1.05807 -0.264583,1.5875 -0.352714,0.79393 -0.705292,1.58723 -1.058334,2.38125 -0.440885,0.61734 -0.881679,1.23445 -1.322916,1.85208 -0.793872,0.70564 -1.587236,1.41085 -2.38125,2.11667 -1.058442,0.35264 -2.116402,0.70529 -3.175,1.05833 -0.352618,0.088 -0.705292,0.17612 -1.058333,0.26459 -0.882457,-2.7e-4 -1.763626,-2.7e-4 -2.645834,0 -0.881943,-0.26493 -1.763625,-0.52944 -2.645833,-0.79375 -0.793639,-0.52954 -1.587235,-1.0586 -2.38125,-1.5875 -0.705345,-0.61768 -1.410846,-1.23499 -2.116667,-1.85209 -0.440719,-0.88223 -0.881679,-1.76415 -1.322916,-2.64583 -0.176104,-0.79392 -0.352513,-1.58777 -0.529167,-2.38125 2.65e-4,-1.67555 2.65e-4,-3.35166 0,-5.02708 2.65e-4,-6.08473 2.65e-4,-12.1711 0,-18.25625 2.65e-4,-0.61761 2.65e-4,-1.23499 0,-1.85209 -0.08789,-0.35289 -0.176125,-0.70582 -0.264583,-1.05833 0.04465,-2.30713 0.08317,-4.30872 0.133239,-6.92431 -1.132412,0.52452 -1.997977,0.92555 -2.998261,1.38914 -1.058703,0.88221 -2.116117,1.76339 -3.175,2.64584 -2.116971,2.02875 -4.232799,4.05642 -6.35,6.08541 -1.028919,1.30074 -2.057605,2.60112 -3.087159,3.90253 -1.234742,0.52903 -2.469177,1.05807 -3.704167,1.5875 -0.617098,0.0879 -1.234162,0.17608 -1.852083,0.26458 -0.882102,-0.0885 -1.763388,-0.17663 -2.645833,-0.26458 -1.058353,-0.35314 -2.116245,-0.70577 -3.175,-1.05834 -0.705397,-0.70592 -1.410847,-1.41137 -2.116667,-2.11666 -1.881101,-1.83027 -3.762454,-3.66028 -5.644091,-5.49003 -1.499046,-1.41138 -2.998348,-2.82249 -4.497916,-4.23333 -1.028785,-0.90428 -1.86727,-1.64089 -3.087153,-2.71206 -0.05237,5.03487 -0.08855,8.49565 -0.133242,12.74514 2.64e-4,6.43922 2.64e-4,12.87612 0,19.31459 2.64e-4,0.52892 2.64e-4,1.05806 0,1.5875 -0.264451,0.79388 -0.528902,1.58723 -0.79375,2.38125 -0.501256,0.85835 -1.058069,1.76362 -1.5875,2.64583 l -1.5875,1.5875 c -0.970358,0.52917 -1.940008,1.05807 -2.910418,1.5875 -0.88197,0.17618 -1.76362,0.35251 -2.64583,0.52917 -0.88199,-2.7e-4 -1.76363,-2.7e-4 -2.64584,0 -1.1466,-0.44137 -2.29279,-0.88222 -3.43958,-1.32292 -1.1464,-0.97053 -2.29279,-1.94055 -3.43958,-2.91042 -0.57399,-1.21176 -1.23446,-2.46971 -1.85209,-3.70416 2.7e-4,-0.97033 2.7e-4,-1.94055 0,-2.91042 2.7e-4,-20.19129 2.7e-4,-40.39332 0,-60.58958 0.0885,-0.8822 0.17666,-1.76416 0.26459,-2.64584 0.42277,-0.95753 0.88221,-1.94054 1.32291,-2.91041 0.87423,-0.98714 1.76416,-1.94055 2.64584,-2.91042 0.52928,-0.35294 1.0586,-0.70582 1.5875,-1.05833 0.73751,-0.25685 1.41137,-0.52943 2.11666,-0.79375 1.05812,-0.0884 2.11694,-0.17666 3.175,-0.26459 0.7938,0.17608 1.58777,0.35252 2.38125,0.52917 0.44113,0.17608 0.88221,0.35251 1.32292,0.52917 0.52927,0.26423 1.0586,0.5289 1.5875,0.79375 7.019278,8.076 14.037515,16.15138 21.057074,24.22884 z"
       transform="matrix(1.4159013,0,0,1.4159013,203.45142,-14.786938)"
       sodipodi:nodetypes="ccccccccccccccccccccccccccccccccccccccccccccccccccccccccccccccccccccccccccc" />
    <path
       style="display:inline;fill:#ffffff;fill-opacity:1;stroke:none;stroke-width:0.26458332px;stroke-linecap:butt;stroke-linejoin:miter;stroke-opacity:1"
       d="m 140.75858,166.57794 c 1.71637,0 3.43396,0 4.29208,1.14418 0.85813,1.14419 0.85813,3.43505 0.57221,4.57897 -0.28593,1.14391 -0.8583,1.14392 -1.71703,0.57146 -0.85872,-0.57246 -2.00278,-1.71652 -3.1473,-1.71656 -1.14452,-4e-5 -2.28858,1.14402 -3.14727,1.71652 -0.85868,0.5725 -1.43038,0.5725 -1.71673,-0.57277 -0.28634,-1.14527 -0.28634,-3.43223 0.57232,-4.57701 0.85866,-1.14479 2.57535,-1.14479 4.29172,-1.14479 z"
       id="path869"
       inkscape:connector-curvature="0"
       inkscape:path-effect="#path-effect871"
       inkscape:original-d="m 140.75849,166.57794 c 1.71646,-9e-5 3.43405,-9e-5 5.1503,0 9e-5,2.28837 9e-5,4.57923 0,6.86706 -0.57185,-8e-5 -1.14422,-8e-5 -1.71676,1e-5 -1.14483,-1.145 -2.28889,-2.28906 -3.43353,-3.43354 -1.14448,1.14448 -2.28854,2.28854 -3.43354,3.43354 -0.57237,-9e-5 -1.14407,-9e-5 -1.71676,0 8e-5,-2.29054 8e-5,-4.5775 0,-6.86707 1.71732,-9e-5 3.43401,-9e-5 5.15029,0 z"
       sodipodi:nodetypes="cccccczzc"
       transform="matrix(4.3642966,0,0,4.3642966,-515.94105,-621.02283)" />
    <circle
       style="display:inline;opacity:1;fill:#00ff00;fill-opacity:1;fill-rule:nonzero;stroke:none;stroke-width:0.50370747;stroke-linecap:round;stroke-miterlimit:4;stroke-dasharray:none;stroke-opacity:1"
       id="path873"
       cx="110.35531"
       cy="115.01965"
       r="1.1040171" />
    <circle
       style="display:inline;opacity:1;fill:#00ffff;fill-opacity:1;fill-rule:nonzero;stroke:none;stroke-width:0.50370747;stroke-linecap:round;stroke-miterlimit:4;stroke-dasharray:none;stroke-opacity:1"
       id="path873-4"
       cx="107.72731"
       cy="117.371"
       r="1.1040171" />
    <circle
       style="display:inline;opacity:1;fill:#ffff00;fill-opacity:1;fill-rule:nonzero;stroke:none;stroke-width:0.50370747;stroke-linecap:round;stroke-miterlimit:4;stroke-dasharray:none;stroke-opacity:1"
       id="path873-9"
       cx="112.79143"
       cy="117.371"
       r="1.1040171" />
    <circle
       style="display:inline;opacity:1;fill:#ff0900;fill-opacity:1;fill-rule:nonzero;stroke:none;stroke-width:0.50370747;stroke-linecap:round;stroke-miterlimit:4;stroke-dasharray:none;stroke-opacity:1"
       id="path873-2"
       cx="110.40136"
       cy="119.76842"
       r="1.1040171" />
    <circle
       style="display:inline;opacity:1;fill:#555555;fill-opacity:1;fill-rule:nonzero;stroke:none;stroke-width:0.50370747;stroke-linecap:round;stroke-miterlimit:4;stroke-dasharray:none;stroke-opacity:1"
       id="path902"
       cx="87.395134"
       cy="117.27876"
       r="4.1400638" />
    <g
       aria-label="Matchmaking"
       style="font-style:normal;font-variant:normal;font-weight:normal;font-stretch:normal;font-size:18.51160049px;line-height:1.25;font-family:'Tw Cen MT Condensed Extra Bold';-inkscape-font-specification:'Tw Cen MT Condensed Extra Bold, ';letter-spacing:0px;word-spacing:0px;fill:#ffffff;fill-opacity:1;stroke:#000000;stroke-width:0.46278998;stroke-opacity:1"
       id="text891"
       transform="matrix(1.4438324,0,0,1.4438324,-53.562251,-116.92867)">
      <path
         d="m 68.4744,281.05274 q -0.894848,0.69599 -1.735463,1.0485 -0.831576,0.34348 -1.871045,0.34348 -0.949081,0 -1.672191,-0.37059 -0.71407,-0.37963 -1.102742,-1.02139 -0.388671,-0.64176 -0.388671,-1.39199 0,-1.01235 0.64176,-1.72642 0.641759,-0.71407 1.762579,-0.95812 0.23501,-0.0542 1.166014,-0.24405 0.931003,-0.18982 1.59084,-0.34348 0.668877,-0.1627 1.446219,-0.38867 -0.04519,-0.9762 -0.39771,-1.42814 -0.343477,-0.46098 -1.43718,-0.46098 -0.940042,0 -1.419102,0.26212 -0.470021,0.26213 -0.813498,0.78638 -0.334438,0.52426 -0.47906,0.696 -0.135583,0.1627 -0.596565,0.1627 -0.415788,0 -0.72311,-0.26213 -0.298282,-0.27117 -0.298282,-0.68695 0,-0.6508 0.460982,-1.26545 0.460982,-0.61464 1.43718,-1.01235 0.976197,-0.39771 2.431455,-0.39771 1.626996,0 2.558,0.38867 0.931003,0.37963 1.310635,1.21121 0.388672,0.83158 0.388672,2.20548 0,0.86774 -0.009,1.47334 0,0.6056 -0.009,1.34679 0,0.69599 0.225972,1.45526 0.23501,0.75022 0.23501,0.96716 0,0.37963 -0.361555,0.69599 -0.352515,0.30732 -0.804459,0.30732 -0.379632,0 -0.750226,-0.35251 -0.370593,-0.36156 -0.786381,-1.03947 z m -0.1627,-3.57036 q -0.542332,0.19886 -1.581802,0.42483 -1.030431,0.21693 -1.428141,0.3254 -0.39771,0.0994 -0.759265,0.40675 -0.361554,0.29828 -0.361554,0.84061 0,0.56041 0.424827,0.95812 0.424826,0.38867 1.11178,0.38867 0.732148,0 1.346791,-0.31636 0.623682,-0.3254 0.912926,-0.83157 0.334438,-0.56041 0.334438,-1.84393 z"
         style="font-style:normal;font-variant:normal;font-weight:normal;font-stretch:normal;font-family:'Arial Rounded MT Bold';-inkscape-font-specification:'Arial Rounded MT Bold, ';fill:#ffffff;stroke:none;stroke-width:0.46278998;stroke-opacity:1"
         id="path918"
         inkscape:connector-curvature="0" />
      <path
         d="m 72.917004,272.62851 h 0.271166 v -1.48237 q 0,-0.59657 0.02712,-0.93101 0.03616,-0.34347 0.180778,-0.58752 0.144622,-0.25309 0.415788,-0.40675 0.271166,-0.1627 0.605604,-0.1627 0.470021,0 0.849653,0.35251 0.253089,0.23502 0.316361,0.57849 0.07231,0.33444 0.07231,0.95812 v 1.68123 h 0.903886 q 0.524255,0 0.795421,0.25309 0.280205,0.24405 0.280205,0.63272 0,0.49714 -0.397711,0.69599 -0.388671,0.19886 -1.120819,0.19886 h -0.460982 v 4.53751 q 0,0.57849 0.03615,0.89485 0.04519,0.30732 0.216933,0.50617 0.180777,0.18982 0.578487,0.18982 0.216933,0 0.587527,-0.0723 0.370593,-0.0813 0.578487,-0.0813 0.298283,0 0.533293,0.24405 0.24405,0.23501 0.24405,0.58753 0,0.59656 -0.650799,0.91292 -0.650798,0.31636 -1.871045,0.31636 -1.156975,0 -1.75354,-0.38867 -0.596566,-0.38867 -0.786382,-1.07562 -0.180777,-0.68696 -0.180777,-1.83489 v -4.73637 h -0.325399 q -0.533294,0 -0.813499,-0.25309 -0.280204,-0.25309 -0.280204,-0.64176 0,-0.38867 0.289243,-0.63272 0.298283,-0.25309 0.858693,-0.25309 z"
         style="font-style:normal;font-variant:normal;font-weight:normal;font-stretch:normal;font-family:'Arial Rounded MT Bold';-inkscape-font-specification:'Arial Rounded MT Bold, ';fill:#ffffff;stroke:none;stroke-width:0.46278998;stroke-opacity:1"
         id="path920"
         inkscape:connector-curvature="0" />
      <path
         d="m 88.188171,279.38958 q 0,0.46099 -0.280205,0.98524 -0.271166,0.52426 -0.840614,1.00332 -0.56041,0.47002 -1.419103,0.75926 -0.858692,0.28924 -1.934317,0.28924 -2.286834,0 -3.570353,-1.32871 -1.283519,-1.33775 -1.283519,-3.57939 0,-1.51853 0.587526,-2.68454 0.587527,-1.16602 1.699307,-1.79874 1.111781,-0.64176 2.657427,-0.64176 0.95812,0 1.753541,0.28021 0.804459,0.2802 1.35583,0.72311 0.56041,0.4429 0.849653,0.94908 0.298283,0.49713 0.298283,0.931 0,0.4429 -0.334438,0.75023 -0.325399,0.30732 -0.79542,0.30732 -0.307322,0 -0.515216,-0.15366 -0.198855,-0.1627 -0.451943,-0.51522 -0.451944,-0.68695 -0.949081,-1.03043 -0.488099,-0.34348 -1.247364,-0.34348 -1.093703,0 -1.762579,0.8587 -0.668876,0.84965 -0.668876,2.33202 0,0.696 0.171738,1.28352 0.171739,0.57849 0.497138,0.99428 0.325399,0.40675 0.786381,0.62368 0.460983,0.20789 1.012353,0.20789 0.741188,0 1.265442,-0.34347 0.533293,-0.34348 0.940042,-1.04851 0.225972,-0.41579 0.488099,-0.6508 0.262127,-0.23501 0.64176,-0.23501 0.451943,0 0.750226,0.34348 0.298282,0.34347 0.298282,0.73214 z"
         style="font-style:normal;font-variant:normal;font-weight:normal;font-stretch:normal;font-family:'Arial Rounded MT Bold';-inkscape-font-specification:'Arial Rounded MT Bold, ';fill:#ffffff;stroke:none;stroke-width:0.46278998;stroke-opacity:1"
         id="path922"
         inkscape:connector-curvature="0" />
      <path
         d="m 92.296336,270.24225 v 3.66074 q 0.470021,-0.54233 0.912926,-0.85869 0.451943,-0.31636 0.994275,-0.47002 0.542332,-0.1627 1.166014,-0.1627 0.940042,0 1.663152,0.39771 0.732148,0.39771 1.147936,1.15697 0.262127,0.44291 0.352516,0.99428 0.09039,0.54233 0.09039,1.2564 v 4.72733 q 0,0.74119 -0.343477,1.12082 -0.334438,0.37963 -0.894848,0.37963 -1.220247,0 -1.220247,-1.50045 v -4.16692 q 0,-1.18409 -0.352516,-1.81681 -0.352515,-0.64176 -1.337752,-0.64176 -0.659837,0 -1.19313,0.37963 -0.524255,0.3706 -0.786382,1.02139 -0.198855,0.55138 -0.198855,1.96144 v 3.26303 q 0,0.73215 -0.334438,1.12082 -0.325399,0.37963 -0.912926,0.37963 -1.220247,0 -1.220247,-1.50045 v -10.70202 q 0,-0.75023 0.316361,-1.12082 0.325399,-0.37963 0.903886,-0.37963 0.587527,0 0.912926,0.37963 0.334438,0.37963 0.334438,1.12082 z"
         style="font-style:normal;font-variant:normal;font-weight:normal;font-stretch:normal;font-family:'Arial Rounded MT Bold';-inkscape-font-specification:'Arial Rounded MT Bold, ';fill:#ffffff;stroke:none;stroke-width:0.46278998;stroke-opacity:1"
         id="path924"
         inkscape:connector-curvature="0" />
      <path
         d="m 109.27585,277.60893 v 3.28111 q 0,0.77734 -0.35252,1.16601 -0.35251,0.38867 -0.931,0.38867 -0.56041,0 -0.91293,-0.38867 -0.34347,-0.38867 -0.34347,-1.16601 v -3.93191 q 0,-0.931 -0.0633,-1.44622 -0.0633,-0.51522 -0.34348,-0.84061 -0.28021,-0.33444 -0.88581,-0.33444 -1.21121,0 -1.59988,0.83157 -0.37963,0.83158 -0.37963,2.38626 v 3.33535 q 0,0.7683 -0.35252,1.16601 -0.34348,0.38867 -0.91292,0.38867 -0.56041,0 -0.92197,-0.38867 -0.35251,-0.39771 -0.35251,-1.16601 v -7.05936 q 0,-0.69599 0.31636,-1.05755 0.3254,-0.36155 0.84965,-0.36155 0.50618,0 0.84061,0.34348 0.34348,0.33443 0.34348,0.931 v 0.23501 q 0.64176,-0.7683 1.37391,-1.12986 0.73215,-0.36155 1.627,-0.36155 0.931,0 1.59988,0.37059 0.66887,0.37059 1.10274,1.12082 0.62368,-0.75927 1.33775,-1.12082 0.71407,-0.37059 1.5818,-0.37059 1.01235,0 1.7445,0.39771 0.73215,0.39771 1.09371,1.13889 0.31636,0.66888 0.31636,2.10606 v 4.81772 q 0,0.77734 -0.35252,1.16601 -0.35252,0.38867 -0.931,0.38867 -0.56041,0 -0.92197,-0.38867 -0.35251,-0.39771 -0.35251,-1.16601 v -4.14884 q 0,-0.79542 -0.0723,-1.27448 -0.0633,-0.47906 -0.36156,-0.80446 -0.29828,-0.3254 -0.90389,-0.3254 -0.48809,0 -0.931,0.28924 -0.43387,0.28925 -0.67791,0.77734 -0.27117,0.62369 -0.27117,2.20549 z"
         style="font-style:normal;font-variant:normal;font-weight:normal;font-stretch:normal;font-family:'Arial Rounded MT Bold';-inkscape-font-specification:'Arial Rounded MT Bold, ';fill:#ffffff;stroke:none;stroke-width:0.46278998;stroke-opacity:1"
         id="path926"
         inkscape:connector-curvature="0" />
      <path
         d="m 123.68381,281.05274 q -0.89485,0.69599 -1.73547,1.0485 -0.83157,0.34348 -1.87104,0.34348 -0.94908,0 -1.67219,-0.37059 -0.71407,-0.37963 -1.10274,-1.02139 -0.38868,-0.64176 -0.38868,-1.39199 0,-1.01235 0.64176,-1.72642 0.64176,-0.71407 1.76258,-0.95812 0.23501,-0.0542 1.16602,-0.24405 0.931,-0.18982 1.59084,-0.34348 0.66887,-0.1627 1.44622,-0.38867 -0.0452,-0.9762 -0.39771,-1.42814 -0.34348,-0.46098 -1.43718,-0.46098 -0.94005,0 -1.41911,0.26212 -0.47002,0.26213 -0.81349,0.78638 -0.33444,0.52426 -0.47906,0.696 -0.13559,0.1627 -0.59657,0.1627 -0.41579,0 -0.72311,-0.26213 -0.29828,-0.27117 -0.29828,-0.68695 0,-0.6508 0.46098,-1.26545 0.46098,-0.61464 1.43718,-1.01235 0.9762,-0.39771 2.43146,-0.39771 1.62699,0 2.558,0.38867 0.931,0.37963 1.31063,1.21121 0.38867,0.83158 0.38867,2.20548 0,0.86774 -0.009,1.47334 0,0.6056 -0.009,1.34679 0,0.69599 0.22598,1.45526 0.23501,0.75022 0.23501,0.96716 0,0.37963 -0.36156,0.69599 -0.35251,0.30732 -0.80446,0.30732 -0.37963,0 -0.75022,-0.35251 -0.3706,-0.36156 -0.78638,-1.03947 z m -0.1627,-3.57036 q -0.54234,0.19886 -1.58181,0.42483 -1.03043,0.21693 -1.42814,0.3254 -0.39771,0.0994 -0.75926,0.40675 -0.36156,0.29828 -0.36156,0.84061 0,0.56041 0.42483,0.95812 0.42483,0.38867 1.11178,0.38867 0.73215,0 1.34679,-0.31636 0.62368,-0.3254 0.91293,-0.83157 0.33444,-0.56041 0.33444,-1.84393 z"
         style="font-style:normal;font-variant:normal;font-weight:normal;font-stretch:normal;font-family:'Arial Rounded MT Bold';-inkscape-font-specification:'Arial Rounded MT Bold, ';fill:#ffffff;stroke:none;stroke-width:0.46278998;stroke-opacity:1"
         id="path928"
         inkscape:connector-curvature="0" />
      <path
         d="m 134.58468,281.31486 -2.17837,-3.57939 -1.33775,1.26544 v 1.96144 q 0,0.71407 -0.37963,1.10274 -0.37059,0.37963 -0.85869,0.37963 -0.56945,0 -0.89485,-0.37963 -0.3254,-0.37963 -0.3254,-1.12082 v -10.52124 q 0,-0.82254 0.31636,-1.24737 0.31636,-0.43386 0.90389,-0.43386 0.56945,0 0.90388,0.38867 0.33444,0.38867 0.33444,1.14794 v 5.98373 l 2.77493,-2.91052 q 0.51522,-0.54233 0.78639,-0.74119 0.27116,-0.19885 0.65983,-0.19885 0.46099,0 0.76831,0.29828 0.30732,0.28925 0.30732,0.73215 0,0.54233 -1.00332,1.44622 l -1.31063,1.20217 2.53088,3.9771 q 0.28021,0.4429 0.39771,0.67791 0.12655,0.22598 0.12655,0.43387 0,0.58753 -0.3254,0.931 -0.31636,0.33444 -0.84062,0.33444 -0.45194,0 -0.69599,-0.24405 -0.24405,-0.24405 -0.65984,-0.88581 z"
         style="font-style:normal;font-variant:normal;font-weight:normal;font-stretch:normal;font-family:'Arial Rounded MT Bold';-inkscape-font-specification:'Arial Rounded MT Bold, ';fill:#ffffff;stroke:none;stroke-width:0.46278998;stroke-opacity:1"
         id="path930"
         inkscape:connector-curvature="0" />
      <path
         d="m 141.08814,273.8126 v 7.13167 q 0,0.74119 -0.35251,1.12082 -0.35252,0.37963 -0.89485,0.37963 -0.54233,0 -0.88581,-0.38867 -0.33444,-0.38867 -0.33444,-1.11178 v -7.05936 q 0,-0.73214 0.33444,-1.10274 0.34348,-0.37059 0.88581,-0.37059 0.54233,0 0.89485,0.37059 0.35251,0.3706 0.35251,1.03043 z m -1.22024,-2.54896 q -0.51522,0 -0.88581,-0.31636 -0.36156,-0.31636 -0.36156,-0.89485 0,-0.52425 0.3706,-0.85869 0.37963,-0.34347 0.87677,-0.34347 0.47906,0 0.84965,0.30732 0.37059,0.30732 0.37059,0.89484 0,0.56945 -0.36155,0.89485 -0.36156,0.31636 -0.85869,0.31636 z"
         style="font-style:normal;font-variant:normal;font-weight:normal;font-stretch:normal;font-family:'Arial Rounded MT Bold';-inkscape-font-specification:'Arial Rounded MT Bold, ';fill:#ffffff;stroke:none;stroke-width:0.46278998;stroke-opacity:1"
         id="path932"
         inkscape:connector-curvature="0" />
      <path
         d="m 145.90134,273.77645 v 0.29828 q 0.6508,-0.85869 1.4191,-1.2564 0.77735,-0.40675 1.78066,-0.40675 0.9762,0 1.7445,0.42483 0.76831,0.42482 1.14794,1.20216 0.24405,0.45195 0.31636,0.9762 0.0723,0.52426 0.0723,1.33776 v 4.59174 q 0,0.74119 -0.34348,1.12082 -0.33444,0.37963 -0.87677,0.37963 -0.55137,0 -0.89485,-0.38867 -0.34347,-0.38867 -0.34347,-1.11178 v -4.11268 q 0,-1.22025 -0.34348,-1.86201 -0.33444,-0.6508 -1.34679,-0.6508 -0.65984,0 -1.20217,0.39771 -0.54233,0.38867 -0.79542,1.07563 -0.18078,0.55137 -0.18078,2.06086 v 3.09129 q 0,0.75023 -0.35251,1.12986 -0.34348,0.37059 -0.89485,0.37059 -0.53329,0 -0.87677,-0.38867 -0.34348,-0.38867 -0.34348,-1.11178 v -7.13167 q 0,-0.70503 0.30732,-1.04851 0.30732,-0.35251 0.84062,-0.35251 0.3254,0 0.58752,0.15366 0.26213,0.15366 0.41579,0.46098 0.1627,0.30732 0.1627,0.75023 z"
         style="font-style:normal;font-variant:normal;font-weight:normal;font-stretch:normal;font-family:'Arial Rounded MT Bold';-inkscape-font-specification:'Arial Rounded MT Bold, ';fill:#ffffff;stroke:none;stroke-width:0.46278998;stroke-opacity:1"
         id="path934"
         inkscape:connector-curvature="0" />
      <path
         d="m 163.90677,274.21935 v 7.16782 q 0,1.22929 -0.26213,2.1151 -0.26213,0.88581 -0.84061,1.4643 -0.57849,0.57848 -1.51853,0.85869 -0.93101,0.2802 -2.32299,0.2802 -1.27448,0 -2.2778,-0.36155 -1.00331,-0.35252 -1.54564,-0.92197 -0.54234,-0.56041 -0.54234,-1.15697 0,-0.45194 0.30733,-0.74119 0.30732,-0.2802 0.74118,-0.2802 0.54234,0 0.94908,0.47906 0.19886,0.24405 0.40675,0.4881 0.21694,0.25308 0.47002,0.42482 0.26213,0.18078 0.62369,0.26213 0.36155,0.0904 0.83157,0.0904 0.95812,0 1.48238,-0.27117 0.53329,-0.26212 0.74118,-0.74118 0.21694,-0.47906 0.25309,-1.03044 0.0362,-0.54233 0.0542,-1.75354 -0.56945,0.79542 -1.31968,1.21121 -0.74119,0.41579 -1.77162,0.41579 -1.23832,0 -2.16933,-0.63272 -0.92196,-0.63272 -1.4191,-1.77162 -0.49714,-1.1389 -0.49714,-2.63031 0,-1.11178 0.29829,-2.00663 0.30732,-0.89485 0.86773,-1.50949 0.56041,-0.61464 1.29256,-0.92196 0.73214,-0.31636 1.60891,-0.31636 1.04851,0 1.81682,0.40675 0.7683,0.39771 1.42814,1.2564 v -0.33444 q 0,-0.64176 0.31636,-0.99428 0.31636,-0.35251 0.8135,-0.35251 0.71407,0 0.94908,0.47002 0.23501,0.46098 0.23501,1.33775 z m -7.14975,3.12745 q 0,1.50045 0.6508,2.26876 0.65984,0.7683 1.69931,0.7683 0.61464,0 1.15697,-0.3254 0.55138,-0.33444 0.89485,-0.99427 0.34348,-0.66888 0.34348,-1.61796 0,-1.50949 -0.66888,-2.35011 -0.65983,-0.84061 -1.7445,-0.84061 -1.05755,0 -1.69931,0.80446 -0.63272,0.80446 -0.63272,2.28683 z"
         style="font-style:normal;font-variant:normal;font-weight:normal;font-stretch:normal;font-family:'Arial Rounded MT Bold';-inkscape-font-specification:'Arial Rounded MT Bold, ';fill:#ffffff;stroke:none;stroke-width:0.46278998;stroke-opacity:1"
         id="path936"
         inkscape:connector-curvature="0" />
      <path
         d="m 54.300725,277.60892 v 3.28111 q 0,0.77734 -0.352521,1.16601 -0.352511,0.38867 -0.931003,0.38867 -0.560411,0 -0.912932,-0.38867 -0.343471,-0.38867 -0.343471,-1.16601 v -3.93191 q 0,-0.931 -0.0633,-1.44622 -0.0633,-0.51522 -0.343481,-0.84061 -0.280211,-0.33444 -0.885813,-0.33444 -1.211213,0 -1.599884,0.83157 -0.379631,0.83158 -0.379631,2.38626 v 3.33535 q 0,0.7683 -0.352521,1.16601 -0.343481,0.38867 -0.912923,0.38867 -0.560411,0 -0.921972,-0.38867 -0.352511,-0.39771 -0.352511,-1.16601 v -7.05936 q 0,-0.69599 0.316361,-1.05755 0.325401,-0.36155 0.849652,-0.36155 0.506182,0 0.840612,0.34348 0.343481,0.33443 0.343481,0.931 v 0.23501 q 0.641762,-0.7683 1.373914,-1.12986 0.732152,-0.36155 1.627005,-0.36155 0.931002,0 1.599884,0.37059 0.668872,0.37059 1.102743,1.12082 0.623682,-0.75927 1.337754,-1.12082 0.714072,-0.37059 1.581804,-0.37059 1.012353,0 1.744505,0.39771 0.732152,0.39771 1.093713,1.13889 0.316361,0.66888 0.316361,2.10606 v 4.81772 q 0,0.77734 -0.352521,1.16601 -0.352521,0.38867 -0.931003,0.38867 -0.560411,0 -0.921972,-0.38867 -0.352511,-0.39771 -0.352511,-1.16601 v -4.14884 q 0,-0.79542 -0.0723,-1.27448 -0.0633,-0.47906 -0.361561,-0.80446 -0.29828,-0.3254 -0.903892,-0.3254 -0.488091,0 -0.931003,0.28924 -0.433871,0.28925 -0.677911,0.77734 -0.271171,0.62369 -0.271171,2.20549 z"
         style="font-style:normal;font-variant:normal;font-weight:normal;font-stretch:normal;font-size:18.51160049px;line-height:1.25;font-family:'Arial Rounded MT Bold';-inkscape-font-specification:'Arial Rounded MT Bold, ';letter-spacing:0px;word-spacing:0px;display:inline;fill:#ffffff;fill-opacity:1;stroke:none;stroke-width:0.46278998;stroke-opacity:1"
         id="path926-4"
         inkscape:connector-curvature="0" />
    </g>
  </g>
  <g
     inkscape:label="Trazo"
     inkscape:groupmode="layer"
     id="layer1"
     style="display:none"
     transform="translate(0,-97)">
    <flowRoot
       xml:space="preserve"
       id="flowRoot815"
       style="font-style:normal;font-weight:normal;font-size:40px;line-height:1.25;font-family:sans-serif;letter-spacing:0px;word-spacing:0px;fill:#000000;fill-opacity:1;stroke:none"><flowRegion
         id="flowRegion817"><rect
           id="rect819"
           width="28.571428"
           height="42.857143"
           x="114.28571"
           y="373.94824" /></flowRegion><flowPara
         id="flowPara821" /></flowRoot>    <text
       xml:space="preserve"
       style="font-style:normal;font-weight:normal;font-size:10.58333302px;line-height:1.25;font-family:sans-serif;letter-spacing:0px;word-spacing:0px;fill:#000000;fill-opacity:1;stroke:none;stroke-width:0.26458332"
       x="31.75"
       y="104.23215"
       id="text825"><tspan
         sodipodi:role="line"
         id="tspan823"
         x="31.75"
         y="113.88764"
         style="stroke-width:0.26458332" /></text>
    <flowRoot
       xml:space="preserve"
       id="flowRoot838"
       style="font-style:normal;font-weight:normal;font-size:40px;line-height:1.25;font-family:sans-serif;letter-spacing:0px;word-spacing:0px;fill:#000000;fill-opacity:1;stroke:none"><flowRegion
         id="flowRegion840"><rect
           id="rect842"
           width="522.85712"
           height="354.28571"
           x="222.85715"
           y="256.80539" /></flowRegion><flowPara
         id="flowPara844" /></flowRoot>    <circle
       style="opacity:1;fill:none;fill-opacity:1;fill-rule:nonzero;stroke:#0000ff;stroke-width:0.19832116;stroke-linecap:butt;stroke-linejoin:round;stroke-miterlimit:4;stroke-dasharray:none;stroke-opacity:1;paint-order:normal"
       id="path4575-8"
       cx="68.806656"
       cy="101.20332"
       r="10.494495" />
    <circle
       style="opacity:1;fill:none;fill-opacity:1;fill-rule:nonzero;stroke:#0000ff;stroke-width:0.19783989;stroke-linecap:butt;stroke-linejoin:round;stroke-miterlimit:4;stroke-dasharray:none;stroke-opacity:1;paint-order:normal"
       id="path4575-8-7"
       cx="68.795647"
       cy="132.93669"
       r="10.469028" />
    <circle
       style="opacity:1;fill:none;fill-opacity:1;fill-rule:nonzero;stroke:#0000ff;stroke-width:0.19813415;stroke-linecap:butt;stroke-linejoin:round;stroke-miterlimit:4;stroke-dasharray:none;stroke-opacity:1;paint-order:normal"
       id="path4575-8-7-0"
       cx="68.788284"
       cy="193.81679"
       r="10.4846" />
    <circle
       style="opacity:1;fill:none;fill-opacity:1;fill-rule:nonzero;stroke:#0000ff;stroke-width:0.19783989;stroke-linecap:butt;stroke-linejoin:round;stroke-miterlimit:4;stroke-dasharray:none;stroke-opacity:1;paint-order:normal"
       id="path4575-8-7-7"
       cx="132.30708"
       cy="132.92566"
       r="10.469028" />
    <circle
       style="opacity:1;fill:none;fill-opacity:1;fill-rule:nonzero;stroke:#0000ff;stroke-width:0.19783989;stroke-linecap:butt;stroke-linejoin:round;stroke-miterlimit:4;stroke-dasharray:none;stroke-opacity:1;paint-order:normal"
       id="path4575-8-7-6"
       cx="132.29848"
       cy="193.80888"
       r="10.469028" />
    <circle
       style="opacity:1;fill:none;fill-opacity:1;fill-rule:nonzero;stroke:#0000ff;stroke-width:0.19783989;stroke-linecap:butt;stroke-linejoin:round;stroke-miterlimit:4;stroke-dasharray:none;stroke-opacity:1;paint-order:normal"
       id="path4575-8-7-5"
       cx="100.57491"
       cy="172.63512"
       r="10.469028" />
    <circle
       style="opacity:1;fill:none;fill-opacity:1;fill-rule:nonzero;stroke:#0000ff;stroke-width:0.19832116;stroke-linecap:butt;stroke-linejoin:round;stroke-miterlimit:4;stroke-dasharray:none;stroke-opacity:1;paint-order:normal"
       id="path4575-8-3"
       cx="132.36241"
       cy="101.30942"
       r="10.494495" />
    <circle
       style="display:inline;opacity:1;fill:none;fill-opacity:1;fill-rule:nonzero;stroke:#0000ff;stroke-width:0.19832116;stroke-linecap:butt;stroke-linejoin:round;stroke-miterlimit:4;stroke-dasharray:none;stroke-opacity:1;paint-order:normal"
       id="path4575-8-0"
       cx="68.773247"
       cy="101.21954"
       r="10.494495" />
    <circle
       style="display:inline;opacity:1;fill:none;fill-opacity:1;fill-rule:nonzero;stroke:#0000ff;stroke-width:0.09917968;stroke-linecap:butt;stroke-linejoin:round;stroke-miterlimit:4;stroke-dasharray:none;stroke-opacity:1;paint-order:normal"
       id="path4575-8-7-5-4"
       cx="100.54792"
       cy="156.76498"
       r="5.2482586" />
  </g>
</svg>
