<?xml version="1.0" encoding="UTF-8" standalone="no"?>
<!-- Created with Inkscape (http://www.inkscape.org/) -->

<svg
   xmlns:dc="http://purl.org/dc/elements/1.1/"
   xmlns:cc="http://creativecommons.org/ns#"
   xmlns:rdf="http://www.w3.org/1999/02/22-rdf-syntax-ns#"
   xmlns:svg="http://www.w3.org/2000/svg"
   xmlns="http://www.w3.org/2000/svg"
   xmlns:sodipodi="http://sodipodi.sourceforge.net/DTD/sodipodi-0.dtd"
   xmlns:inkscape="http://www.inkscape.org/namespaces/inkscape"
   width="1080mm"
   height="1080mm"
   viewBox="0 0 1080 1080"
   version="1.1"
   id="svg8"
   inkscape:version="0.92.5 (2060ec1f9f, 2020-04-08)"
   sodipodi:docname="404.svg">
  <defs
     id="defs2" />
  <sodipodi:namedview
     id="base"
     pagecolor="#ffffff"
     bordercolor="#666666"
     borderopacity="1.0"
     inkscape:pageopacity="0.0"
     inkscape:pageshadow="2"
     inkscape:zoom="0.12374369"
     inkscape:cx="927.14598"
     inkscape:cy="2093.1638"
     inkscape:document-units="mm"
     inkscape:current-layer="layer1"
     showgrid="false"
     showguides="true"
     inkscape:guide-bbox="true"
     inkscape:window-width="1366"
     inkscape:window-height="715"
     inkscape:window-x="-8"
     inkscape:window-y="-8"
     inkscape:window-maximized="1" />
  <metadata
     id="metadata5">
    <rdf:RDF>
      <cc:Work
         rdf:about="">
        <dc:format>image/svg+xml</dc:format>
        <dc:type
           rdf:resource="http://purl.org/dc/dcmitype/StillImage" />
        <dc:title />
      </cc:Work>
    </rdf:RDF>
  </metadata>
  <g
     inkscape:label="Capa 1"
     inkscape:groupmode="layer"
     id="layer1"
     transform="translate(0,783)">
    <g
       id="g28079"
       transform="matrix(0.96001284,0,0,0.96001284,0.92228258,73.64586)">
      <path
         style="fill:#fafef4;stroke-width:0.35277778"
         d="M 404.86175,62.7345 H 359.52981 V 28.867833 -4.9988333 h 45.33194 45.33195 V 28.867833 62.7345 Z m 102.30556,0 H 461.83536 V 28.867833 -4.9988333 h 45.33195 45.33194 V 28.867833 62.7345 Z m 104.77499,0 H 563.78814 V 28.867833 -4.9988333 h 48.15416 48.15417 V 28.867833 62.7345 Z m 104.95139,0 H 671.38536 V 28.867833 -4.9988333 h 45.50833 45.50833 V 28.867833 62.7345 Z m -363.00832,-79.375 h -45.50834 v -34.043056 -34.043055 h 19.93195 19.93194 v -5.644445 -5.644444 h 5.64445 5.64444 v -5.64444 -5.64445 H 345.4187 331.30759 v -19.75555 -19.75556 h 5.64444 5.64445 v -2.82222 -2.82222 h 8.46666 8.46667 v -5.82084 -5.82083 h 5.64444 5.64445 v -5.64445 -5.64444 h -14.11111 -14.11111 v -14.11111 -14.11111 h 8.46666 8.46667 v -11.46528 -11.46528 h 2.82222 2.82222 v -2.82222 -2.82222 h 36.86528 36.86528 v 2.82222 2.82222 h 19.93194 19.93195 v 5.82084 5.82083 h -14.2875 -14.2875 v 5.64444 5.64445 h 14.2875 14.2875 v 5.64444 5.64445 h 5.64444 5.64444 v 5.64444 5.64445 h -5.64444 -5.64444 v 2.82222 2.82222 h -8.46667 -8.46667 v 5.64444 5.64445 h -11.46527 -11.46528 v 5.82083 5.82084 h 19.93194 19.93195 v 2.82222 2.82222 h 5.64444 5.64444 v 19.75556 19.75555 H 478.7687 467.47981 v 5.64445 5.64444 h 5.64444 5.64445 v 5.644444 5.644445 h 11.28888 11.28889 v 34.043055 34.043056 h -45.33194 -45.33194 v -34.043056 -34.043055 h 11.28889 11.28888 v -2.822222 -2.822223 h -2.82222 -2.82222 v -2.822222 -2.822222 h -2.82222 -2.82222 v -2.822222 -2.822218 H 410.68259 399.3937 v 2.822218 2.822222 h -2.82222 -2.82223 v 2.822222 2.822222 h -2.82222 -2.82222 v 2.822223 2.822222 h 5.64444 5.64445 v 34.043055 34.043056 z m 204.25832,0 h -45.50833 v -34.043056 -34.043055 h 34.04306 34.04305 v -5.644445 -5.644444 h -2.82222 -2.82222 v -5.64444 -5.64445 h 28.39861 28.39861 v -2.82222 -2.82222 h 39.68749 39.6875 v 5.64444 5.64445 h 25.57639 25.57639 v 8.466662 8.466667 h 25.4 25.4 v 34.043055 34.043056 h -45.33195 -45.33194 v -34.043056 -34.043055 h -5.64444 -5.64445 v 34.043055 34.043056 h -48.15416 -48.15417 v -34.043056 -34.043055 h -5.64444 -5.64445 v 34.043055 34.043056 z m 70.90833,-130.175 h -14.11111 v -2.82222 -2.82222 h -11.46527 -11.46528 v -5.82084 -5.82083 h -5.64445 -5.64444 v -2.82222 -2.82223 h -2.82222 -2.82222 v -2.82222 -2.82222 h 8.46666 8.46667 v -8.46667 -8.46666 h 5.82083 5.82083 v -8.46667 -8.46667 h -2.99861 -2.99861 v -2.82222 -2.82222 h -2.82222 -2.82222 v -8.64306 -8.64305 h 5.82083 5.82083 v -5.64445 -5.64444 h -5.82083 -5.82083 v -5.64445 -5.64444 h 5.82083 5.82083 v -2.82222 -2.82222 h -2.99861 -2.99861 v -2.82223 -2.82222 h -2.82222 -2.82222 v -2.82222 -2.82222 h -5.64445 -5.64444 v -5.64445 -5.64444 h 5.64444 5.64445 v -2.82222 -2.82223 h 2.82222 2.82222 v -2.82222 -2.82222 h 5.82084 5.82083 v -8.64306 -8.64305 h 5.64444 5.64445 v 5.64444 5.64445 h 5.64444 5.64445 v -5.64445 -5.64444 h 14.11111 14.11111 v 5.64444 5.64445 h 5.64444 5.64445 v -5.64445 -5.64444 h 5.82083 5.82083 v 8.64305 8.64306 h 5.64445 5.64444 v 2.82222 2.82222 h 2.82222 2.82222 v 2.82223 2.82222 h 5.64445 5.64444 v 5.64444 5.64445 h 5.64445 5.64444 v 14.11111 14.11111 h 8.46667 8.46666 v 45.50833 45.50834 h -5.64444 -5.64444 v 2.82222 2.82222 h -14.11111 -14.11112 v -8.64306 -8.64305 h -8.46666 -8.46667 v 5.82083 5.82084 h -19.93194 -19.93195 v 2.82222 2.82222 z m 76.55278,-17.28611 h 5.64444 v -14.11111 -14.11111 h -8.46666 -8.46667 v -5.64445 -5.64444 h -5.64444 -5.64445 v 5.64444 5.64445 h -11.46528 -11.46527 v 2.82222 2.82222 h -2.82223 -2.82222 v 2.82222 2.82223 h -11.28889 -11.28888 v -5.64445 -5.64444 h 5.64444 5.64444 v -5.64445 -5.64444 h -5.64444 -5.64444 v 5.64444 5.64445 h -5.64445 -5.64444 v 8.46666 8.46667 h 25.4 25.4 v -2.82222 -2.82222 h 2.99861 2.99861 v -2.82223 -2.82222 h 8.46666 8.46667 v 2.82222 2.82223 h 2.82222 2.82222 v 8.46666 8.46667 z"
         id="path28097"
         inkscape:connector-curvature="0" />
      <path
         style="fill:#dbdbdb;stroke-width:0.35277778"
         d="m 404.86175,62.7345 h -45.33194 v -5.644444 -5.644445 h 5.64444 5.64445 V 28.867833 6.2900556 h 31.22083 31.22083 V 0.64561111 -4.9988333 h 8.46667 8.46667 V 28.867833 62.7345 Z m 102.30556,0 H 461.83536 V 28.867833 -4.9988333 h 2.82222 2.82223 V 23.223389 51.445611 h 5.64444 5.64445 V 28.867833 6.2900556 h 31.22083 31.22083 V 0.64561111 -4.9988333 h 5.64444 5.64445 V 28.867833 62.7345 Z m 104.77499,0 H 563.78814 V 28.867833 -4.9988333 h 2.82222 2.82222 v 25.4000003 25.4 h 5.64445 5.64444 V 26.045611 6.2900556 h 31.22083 31.22083 V 0.64561111 -4.9988333 h 8.46667 8.46667 V 28.867833 62.7345 Z m 104.95139,0 H 671.38536 V 28.867833 -4.9988333 h 2.99861 2.99861 v 25.4000003 25.4 h 5.64444 5.64445 V 26.045611 6.2900556 h 28.22222 28.22222 V 0.64561111 -4.9988333 h 8.64305 8.64306 V 28.867833 62.7345 Z m -363.00832,-79.375 h -45.50834 v -5.644444 -5.644445 h 5.82084 5.82083 v -22.577778 -22.577777 h 5.64445 5.64444 v -5.820834 -5.820833 h 8.46667 8.46666 v -5.644445 -5.644444 h 5.64445 5.64444 v -5.64444 -5.64445 H 345.4187 331.30759 v -19.75555 -19.75556 h 5.64444 5.64445 v -2.82222 -2.82222 h 8.46666 8.46667 v -5.82084 -5.82083 h 5.64444 5.64445 v -5.64445 -5.64444 h -14.11111 -14.11111 v -14.11111 -14.11111 h 8.46666 8.46667 v -11.46528 -11.46528 h 2.82222 2.82222 v -2.82222 -2.82222 h 36.86528 36.86528 v 2.82222 2.82222 h 19.93194 19.93195 v 5.82084 5.82083 h -14.2875 -14.2875 v 5.64444 5.64445 h 14.2875 14.2875 v 5.64444 5.64445 h 5.64444 5.64444 v 5.64444 5.64445 h -5.64444 -5.64444 v 2.82222 2.82222 h -8.46667 -8.46667 v 5.64444 5.64445 h -11.46527 -11.46528 v 5.82083 5.82084 h 19.93194 19.93195 v 2.82222 2.82222 h 5.64444 5.64444 v 19.75556 19.75555 H 478.7687 467.47981 v 5.64445 5.64444 h 5.64444 5.64445 v 5.644444 5.644445 h 11.28888 11.28889 v 34.043055 34.043056 h -45.33194 -45.33194 v -34.043056 -34.043055 h 2.82222 2.82222 V -56.328 -27.929389 h 5.64445 5.64444 v -22.577778 -22.577777 h 2.82222 2.82222 V -81.728 -90.371056 h -2.82222 -2.82222 v -2.822222 -2.822222 h -2.82222 -2.82222 v -2.822222 -2.822218 H 410.68259 399.3937 v 2.822218 2.822222 h -2.82222 -2.82223 v 2.822222 2.822222 h -2.82222 -2.82222 v 2.822223 2.822222 h 5.64444 5.64445 v 34.043055 34.043056 z m 204.25832,0 h -45.50833 v -34.043056 -34.043055 h 2.82222 2.82223 V -56.328 -27.929389 h 5.64444 5.64444 v -22.577778 -22.577777 h 37.04167 37.04166 v 28.222222 28.222222 z m 104.95139,0 h -48.15417 v -5.644444 -5.644445 h 8.46667 8.46667 v -22.577778 -22.577777 h 39.68749 39.6875 v 28.222222 28.222222 z m 104.77499,0 h -45.33194 v -28.222222 -28.222222 h 2.82222 2.82223 v 22.577777 22.577778 h 5.64444 5.64444 v -22.577778 -22.577777 h 31.22084 31.22083 v -5.820834 -5.820833 h 5.64444 5.64445 V -50.683556 -16.6405 Z M 614.76452,-84.726611 h -34.04305 v -5.644445 -5.644444 h -2.82222 -2.82222 v -5.64444 -5.64445 h 28.39861 28.39861 v -2.82222 -2.82222 h 39.68749 39.6875 v 5.64444 5.64445 h 25.57639 25.57639 v 8.466662 8.466667 h -34.04306 -34.04305 v -2.822222 -2.822223 h -22.75417 -22.75416 v 2.822223 2.822222 z m 14.2875,-62.088889 h -14.11111 v -2.82222 -2.82222 h -11.46527 -11.46528 v -5.82084 -5.82083 h -5.64445 -5.64444 v -2.82222 -2.82223 h -2.82222 -2.82222 v -2.82222 -2.82222 h 8.46666 8.46667 v -8.46667 -8.46666 h 5.82083 5.82083 v -8.46667 -8.46667 h -2.99861 -2.99861 v -2.82222 -2.82222 h -2.82222 -2.82222 v -8.64306 -8.64305 h 5.82083 5.82083 v -5.64445 -5.64444 h -5.82083 -5.82083 v -5.64445 -5.64444 h 5.82083 5.82083 v -2.82222 -2.82222 h -2.99861 -2.99861 v -2.82223 -2.82222 h -2.82222 -2.82222 v -2.82222 -2.82222 h -5.64445 -5.64444 v -5.64445 -5.64444 h 5.64444 5.64445 v -2.82222 -2.82223 h 2.82222 2.82222 v -2.82222 -2.82222 h 5.82084 5.82083 v -8.64306 -8.64305 h 5.64444 5.64445 v 5.64444 5.64445 h 5.64444 5.64445 v -5.64445 -5.64444 h 14.11111 14.11111 v 5.64444 5.64445 h 5.64444 5.64445 v -5.64445 -5.64444 h 5.82083 5.82083 v 8.64305 8.64306 h 5.64445 5.64444 v 2.82222 2.82222 h 2.82222 2.82222 v 2.82223 2.82222 h 5.64445 5.64444 v 5.64444 5.64445 h 5.64445 5.64444 v 14.11111 14.11111 h 8.46667 8.46666 v 45.50833 45.50834 h -5.64444 -5.64444 v 2.82222 2.82222 h -14.11111 -14.11112 v -8.64306 -8.64305 h -8.46666 -8.46667 v 5.82083 5.82084 h -19.93194 -19.93195 v 2.82222 2.82222 z m 76.55278,-17.28611 h 5.64444 v -14.11111 -14.11111 h -8.46666 -8.46667 v -5.64445 -5.64444 h -5.64444 -5.64445 v 5.64444 5.64445 h -11.46528 -11.46527 v 2.82222 2.82222 h -2.82223 -2.82222 v 2.82222 2.82223 h -11.28889 -11.28888 v -5.64445 -5.64444 h 5.64444 5.64444 v -5.64445 -5.64444 h -5.64444 -5.64444 v 5.64444 5.64445 h -5.64445 -5.64444 v 8.46666 8.46667 h 25.4 25.4 v -2.82222 -2.82222 h 2.99861 2.99861 v -2.82223 -2.82222 h 8.46666 8.46667 v 2.82222 2.82223 h 2.82222 2.82222 v 8.46666 8.46667 z"
         id="path28095"
         inkscape:connector-curvature="0" />
      <path
         style="fill:#ababab;stroke-width:0.35277778"
         d="m 404.86175,62.7345 h -45.33194 v -5.644444 -5.644445 h 5.64444 5.64445 V 28.867833 6.2900556 h 31.22083 31.22083 V 0.64561111 -4.9988333 h 8.46667 8.46667 V 28.867833 62.7345 Z m 102.30556,0 h -45.33195 v -5.644444 -5.644445 h 8.46667 8.46667 V 28.867833 6.2900556 h 31.22083 31.22083 V 0.64561111 -4.9988333 h 5.64444 5.64445 V 28.867833 62.7345 Z m 104.77499,0 h -48.15416 v -8.466667 -8.466666 h 8.46666 8.46667 V 26.045611 6.2900556 h 31.22083 31.22083 V 0.64561111 -4.9988333 h 8.46667 8.46667 V 28.867833 62.7345 Z m 104.95139,0 h -45.50833 v -8.466667 -8.466666 h 8.64305 8.64306 V 26.045611 6.2900556 h 28.22222 28.22222 V 0.64561111 -4.9988333 h 8.64305 8.64306 V 28.867833 62.7345 Z m -363.00832,-79.375 h -45.50834 v -5.644444 -5.644445 h 5.82084 5.82083 v -22.577778 -22.577777 h 5.64445 5.64444 v -5.820834 -5.820833 h 8.46667 8.46666 v -5.644445 -5.644444 h 5.64445 5.64444 v -5.64444 -5.64445 H 345.4187 331.30759 v -19.75555 -19.75556 h 5.64444 5.64445 v -2.82222 -2.82222 h 8.46666 8.46667 v -5.82084 -5.82083 h 5.64444 5.64445 v -5.64445 -5.64444 h -14.11111 -14.11111 v -14.11111 -14.11111 h 8.46666 8.46667 v -11.46528 -11.46528 h 2.82222 2.82222 v -2.82222 -2.82222 h 36.86528 36.86528 v 2.82222 2.82222 h 19.93194 19.93195 v 5.82084 5.82083 h -14.2875 -14.2875 v 5.64444 5.64445 h 14.2875 14.2875 v 5.64444 5.64445 h 5.64444 5.64444 v 5.64444 5.64445 h -5.64444 -5.64444 v 2.82222 2.82222 h -8.46667 -8.46667 v 5.64444 5.64445 h -11.46527 -11.46528 v 5.82083 5.82084 h 19.93194 19.93195 v 2.82222 2.82222 h 5.64444 5.64444 v 19.75556 19.75555 H 478.7687 467.47981 v 5.64445 5.64444 h 5.64444 5.64445 v 5.644444 5.644445 h 11.28888 11.28889 v 34.043055 34.043056 h -45.33194 -45.33194 v -5.644444 -5.644445 h 8.46666 8.46667 v -22.577778 -22.577777 h 2.82222 2.82222 V -81.728 -90.371056 h -2.82222 -2.82222 v -2.822222 -2.822222 h -2.82222 -2.82222 v -2.822222 -2.822218 H 410.68259 399.3937 v 2.822218 2.822222 h -2.82222 -2.82223 v 2.822222 2.822222 h -2.82222 -2.82222 v 2.822223 2.822222 h 5.64444 5.64445 v 34.043055 34.043056 z m 204.25832,0 h -45.50833 v -5.644444 -5.644445 h 8.46667 8.46666 v -22.577778 -22.577777 h 37.04167 37.04166 v 28.222222 28.222222 z m 104.95139,0 h -48.15417 v -5.644444 -5.644445 h 8.46667 8.46667 v -22.577778 -22.577777 h 39.68749 39.6875 v 28.222222 28.222222 z m 104.77499,0 h -45.33194 v -5.644444 -5.644445 h 8.46667 8.46666 v -22.577778 -22.577777 h 31.22084 31.22083 v -5.820834 -5.820833 h 5.64444 5.64445 V -50.683556 -16.6405 Z M 614.76452,-84.726611 h -34.04305 v -5.644445 -5.644444 h -2.82222 -2.82222 v -5.64444 -5.64445 h 28.39861 28.39861 v -2.82222 -2.82222 h 39.68749 39.6875 v 5.64444 5.64445 h 25.57639 25.57639 v 8.466662 8.466667 h -34.04306 -34.04305 v -2.822222 -2.822223 h -22.75417 -22.75416 v 2.822223 2.822222 z m 14.2875,-62.088889 h -14.11111 v -2.82222 -2.82222 h -11.46527 -11.46528 v -5.82084 -5.82083 h -5.64445 -5.64444 v -2.82222 -2.82223 h -2.82222 -2.82222 v -2.82222 -2.82222 h 8.46666 8.46667 v -8.46667 -8.46666 h 5.82083 5.82083 v -8.46667 -8.46667 h -2.99861 -2.99861 v -2.82222 -2.82222 h -2.82222 -2.82222 v -8.64306 -8.64305 h 5.82083 5.82083 v -5.64445 -5.64444 h -5.82083 -5.82083 v -5.64445 -5.64444 h 5.82083 5.82083 v -2.82222 -2.82222 h -2.99861 -2.99861 v -2.82223 -2.82222 h -2.82222 -2.82222 v -2.82222 -2.82222 h -5.64445 -5.64444 v -5.64445 -5.64444 h 5.64444 5.64445 v -2.82222 -2.82223 h 2.82222 2.82222 v -2.82222 -2.82222 h 5.82084 5.82083 v -8.64306 -8.64305 h 5.64444 5.64445 v 5.64444 5.64445 h 5.64444 5.64445 v -5.64445 -5.64444 h 14.11111 14.11111 v 5.64444 5.64445 h 5.64444 5.64445 v -5.64445 -5.64444 h 5.82083 5.82083 v 8.64305 8.64306 h 5.64445 5.64444 v 2.82222 2.82222 h 2.82222 2.82222 v 2.82223 2.82222 h 5.64445 5.64444 v 5.64444 5.64445 h 5.64445 5.64444 v 14.11111 14.11111 h 8.46667 8.46666 v 45.50833 45.50834 h -5.64444 -5.64444 v 2.82222 2.82222 h -14.11111 -14.11112 v -8.64306 -8.64305 h -8.46666 -8.46667 v 5.82083 5.82084 h -19.93194 -19.93195 v 2.82222 2.82222 z m 76.55278,-17.28611 h 5.64444 v -14.11111 -14.11111 h -8.46666 -8.46667 v -5.64445 -5.64444 h -5.64444 -5.64445 v 5.64444 5.64445 h -11.46528 -11.46527 v 2.82222 2.82222 h -2.82223 -2.82222 v 2.82222 2.82223 h -11.28889 -11.28888 v -5.64445 -5.64444 h 5.64444 5.64444 v -5.64445 -5.64444 h -5.64444 -5.64444 v 5.64444 5.64445 h -5.64445 -5.64444 v 8.46666 8.46667 h 25.4 25.4 v -2.82222 -2.82222 h 2.99861 2.99861 v -2.82223 -2.82222 h 8.46666 8.46667 v 2.82222 2.82223 h 2.82222 2.82222 v 8.46666 8.46667 z"
         id="path28093"
         inkscape:connector-curvature="0" />
      <path
         style="fill:#e4a623;stroke-width:0.35277778"
         d="m 404.86175,62.7345 h -45.33194 v -5.644444 -5.644445 h 36.86528 36.86527 V 23.223389 -4.9988333 h 8.46667 8.46667 V 28.867833 62.7345 Z m 102.30556,0 h -45.33195 v -5.644444 -5.644445 h 39.6875 39.6875 V 23.223389 -4.9988333 h 5.64444 5.64445 V 28.867833 62.7345 Z m 104.77499,0 h -48.15416 v -8.466667 -8.466666 h 2.82222 2.82222 v 2.822222 2.822222 h 36.86528 36.86527 V 23.223389 -4.9988333 h 8.46667 8.46667 V 28.867833 62.7345 Z m 104.95139,0 h -45.50833 v -5.644444 -5.644445 h 39.86388 39.86389 V 23.223389 -4.9988333 h 5.64444 5.64445 V 28.867833 62.7345 Z m -363.00832,-79.375 h -45.50834 v -5.644444 -5.644445 h 36.86528 36.86528 v -22.577778 -22.577777 h -25.4 -25.4 v -5.820834 -5.820833 h 8.46667 8.46666 v -5.644445 -5.644444 h 5.64445 5.64444 v -5.64444 -5.64445 H 345.4187 331.30759 v -19.75555 -19.75556 h 5.64444 5.64445 v -2.82222 -2.82222 h 8.46666 8.46667 v -5.82084 -5.82083 h 5.64444 5.64445 v -5.64445 -5.64444 h -14.11111 -14.11111 v -14.11111 -14.11111 h 8.46666 8.46667 v -11.46528 -11.46528 h 2.82222 2.82222 v -2.82222 -2.82222 h 36.86528 36.86528 v 2.82222 2.82222 h 19.93194 19.93195 v 5.82084 5.82083 h -14.2875 -14.2875 v 5.64444 5.64445 h 14.2875 14.2875 v 5.64444 5.64445 h 5.64444 5.64444 v 5.64444 5.64445 h -5.64444 -5.64444 v 2.82222 2.82222 h -8.46667 -8.46667 v 5.64444 5.64445 h -11.46527 -11.46528 v 5.82083 5.82084 h 19.93194 19.93195 v 2.82222 2.82222 h 5.64444 5.64444 v 19.75556 19.75555 H 478.7687 467.47981 v 5.64445 5.64444 h 5.64444 5.64445 v 5.644444 5.644445 h 11.28888 11.28889 v 34.043055 34.043056 h -45.33194 -45.33194 v -5.644444 -5.644445 h 39.6875 39.68749 V -50.507167 -73.084944 H 461.65897 433.26036 V -81.728 -90.371056 h -2.82222 -2.82222 v -2.822222 -2.822222 h -2.82222 -2.82222 v -2.822222 -2.822218 H 410.68259 399.3937 v 2.822218 2.822222 h -2.82222 -2.82223 v 2.822222 2.822222 h -2.82222 -2.82222 v 2.822223 2.822222 h 5.64444 5.64445 v 34.043055 34.043056 z m 204.25832,0 h -45.50833 v -5.644444 -5.644445 h 39.6875 39.6875 v -22.577778 -22.577777 h 5.82083 5.82083 v 28.222222 28.222222 z m 104.95139,0 h -48.15417 v -5.644444 -5.644445 h 42.50972 42.50972 v -22.577778 -22.577777 h 5.64445 5.64444 v 28.222222 28.222222 z m 104.77499,0 h -45.33194 v -5.644444 -5.644445 h 39.6875 39.6875 V -56.328 -84.726611 h 5.64444 5.64445 V -50.683556 -16.6405 Z M 614.76452,-84.726611 h -34.04305 v -5.644445 -5.644444 h -2.82222 -2.82222 v -5.64444 -5.64445 h 28.39861 28.39861 v -2.82222 -2.82222 h 39.68749 39.6875 v 5.64444 5.64445 h 25.57639 25.57639 v 8.466662 8.466667 h -34.04306 -34.04305 v -2.822222 -2.822223 h -22.75417 -22.75416 v 2.822223 2.822222 z m 14.2875,-62.088889 h -14.11111 v -2.82222 -2.82222 h -11.46527 -11.46528 v -5.82084 -5.82083 h -5.64445 -5.64444 v -2.82222 -2.82223 h -2.82222 -2.82222 v -2.82222 -2.82222 h 8.46666 8.46667 v -8.46667 -8.46666 h 5.82083 5.82083 v -8.46667 -8.46667 h -2.99861 -2.99861 v -2.82222 -2.82222 h -2.82222 -2.82222 v -8.64306 -8.64305 h 5.82083 5.82083 v -5.64445 -5.64444 h -5.82083 -5.82083 v -5.64445 -5.64444 h 5.82083 5.82083 v -2.82222 -2.82222 h -2.99861 -2.99861 v -2.82223 -2.82222 h -2.82222 -2.82222 v -2.82222 -2.82222 h -5.64445 -5.64444 v -5.64445 -5.64444 h 5.64444 5.64445 v -2.82222 -2.82223 h 2.82222 2.82222 v -2.82222 -2.82222 h 5.82084 5.82083 v -8.64306 -8.64305 h 5.64444 5.64445 v 5.64444 5.64445 h 5.64444 5.64445 v -5.64445 -5.64444 h 14.11111 14.11111 v 5.64444 5.64445 h 5.64444 5.64445 v -5.64445 -5.64444 h 5.82083 5.82083 v 8.64305 8.64306 h 5.64445 5.64444 v 2.82222 2.82222 h 2.82222 2.82222 v 2.82223 2.82222 h 5.64445 5.64444 v 5.64444 5.64445 h 5.64445 5.64444 v 14.11111 14.11111 h 8.46667 8.46666 v 45.50833 45.50834 h -5.64444 -5.64444 v 2.82222 2.82222 h -14.11111 -14.11112 v -8.64306 -8.64305 h -8.46666 -8.46667 v 5.82083 5.82084 h -19.93194 -19.93195 v 2.82222 2.82222 z m 76.55278,-17.28611 h 5.64444 v -14.11111 -14.11111 h -8.46666 -8.46667 v -5.64445 -5.64444 h -5.64444 -5.64445 v 5.64444 5.64445 h -11.46528 -11.46527 v 2.82222 2.82222 h -2.82223 -2.82222 v 2.82222 2.82223 h -11.28889 -11.28888 v -5.64445 -5.64444 h 5.64444 5.64444 v -5.64445 -5.64444 h -5.64444 -5.64444 v 5.64444 5.64445 h -5.64445 -5.64444 v 8.46666 8.46667 h 25.4 25.4 v -2.82222 -2.82222 h 2.99861 2.99861 v -2.82223 -2.82222 h 8.46666 8.46667 v 2.82222 2.82223 h 2.82222 2.82222 v 8.46666 8.46667 z"
         id="path28091"
         inkscape:connector-curvature="0" />
      <path
         style="fill:#e99d23;stroke-width:0.35277778"
         d="m 404.86175,62.7345 h -45.33194 v -5.644444 -5.644445 h 36.86528 36.86527 V 23.223389 -4.9988333 h 8.46667 8.46667 V 28.867833 62.7345 Z m 102.30556,0 h -45.33195 v -5.644444 -5.644445 h 39.6875 39.6875 V 23.223389 -4.9988333 h 5.64444 5.64445 V 28.867833 62.7345 Z m 104.77499,0 h -48.15416 v -8.466667 -8.466666 h 2.82222 2.82222 v 2.822222 2.822222 h 36.86528 36.86527 V 23.223389 -4.9988333 h 8.46667 8.46667 V 28.867833 62.7345 Z m 104.95139,0 h -45.50833 v -5.644444 -5.644445 h 39.86388 39.86389 V 23.223389 -4.9988333 h 5.64444 5.64445 V 28.867833 62.7345 Z m -363.00832,-79.375 h -45.50834 v -5.644444 -5.644445 h 36.86528 36.86528 v -22.577778 -22.577777 h -25.4 -25.4 v -5.820834 -5.820833 h 8.46667 8.46666 v -5.644445 -5.644444 h 5.64445 5.64444 v -5.64444 -5.64445 H 345.4187 331.30759 v -19.75555 -19.75556 h 5.64444 5.64445 v -2.82222 -2.82222 h 8.46666 8.46667 v -5.82084 -5.82083 h 5.64444 5.64445 v -5.64445 -5.64444 h -14.11111 -14.11111 v -14.11111 -14.11111 h 8.46666 8.46667 v -11.46528 -11.46528 h 2.82222 2.82222 v -2.82222 -2.82222 h 36.86528 36.86528 v 2.82222 2.82222 h 19.93194 19.93195 v 5.82084 5.82083 h -14.2875 -14.2875 v 5.64444 5.64445 h 14.2875 14.2875 v 5.64444 5.64445 h 5.64444 5.64444 v 5.64444 5.64445 h -5.64444 -5.64444 v 2.82222 2.82222 h -8.46667 -8.46667 v 5.64444 5.64445 h -11.46527 -11.46528 v 5.82083 5.82084 h 19.93194 19.93195 v 2.82222 2.82222 h 5.64444 5.64444 v 19.75556 19.75555 H 478.7687 467.47981 v 5.64445 5.64444 h 5.64444 5.64445 v 5.644444 5.644445 h 11.28888 11.28889 v 34.043055 34.043056 h -45.33194 -45.33194 v -5.644444 -5.644445 h 39.6875 39.68749 V -50.507167 -73.084944 H 461.65897 433.26036 V -81.728 -90.371056 h -2.82222 -2.82222 v -2.822222 -2.822222 h -2.82222 -2.82222 v -2.822222 -2.822218 H 410.68259 399.3937 v 2.822218 2.822222 h -2.82222 -2.82223 v 2.822222 2.822222 h -2.82222 -2.82222 v 2.822223 2.822222 h 5.64444 5.64445 v 34.043055 34.043056 z m 204.25832,0 h -45.50833 v -5.644444 -5.644445 h 39.6875 39.6875 v -22.577778 -22.577777 h 5.82083 5.82083 v 28.222222 28.222222 z m 104.95139,0 h -48.15417 v -5.644444 -5.644445 h 42.50972 42.50972 v -22.577778 -22.577777 h 5.64445 5.64444 v 28.222222 28.222222 z m 104.77499,0 h -45.33194 v -5.644444 -5.644445 h 39.6875 39.6875 V -56.328 -84.726611 h 5.64444 5.64445 V -50.683556 -16.6405 Z M 614.76452,-84.726611 h -34.04305 v -5.644445 -5.644444 h -2.82222 -2.82222 v -5.64444 -5.64445 h 28.39861 28.39861 v -2.82222 -2.82222 h 39.68749 39.6875 v 5.64444 5.64445 h 25.57639 25.57639 v 8.466662 8.466667 h -34.04306 -34.04305 v -2.822222 -2.822223 h -22.75417 -22.75416 v 2.822223 2.822222 z m 14.2875,-62.088889 h -14.11111 v -2.82222 -2.82222 h -11.46527 -11.46528 v -5.82084 -5.82083 h -5.64445 -5.64444 v -2.82222 -2.82223 h -2.82222 -2.82222 v -2.82222 -2.82222 h 8.46666 8.46667 v -8.46667 -8.46666 h 5.82083 5.82083 v -8.46667 -8.46667 h -2.99861 -2.99861 v -2.82222 -2.82222 h -2.82222 -2.82222 v -8.64306 -8.64305 h 5.82083 5.82083 v -5.64445 -5.64444 h -5.82083 -5.82083 v -5.64445 -5.64444 h 5.82083 5.82083 v -2.82222 -2.82222 h -2.99861 -2.99861 v -2.82223 -2.82222 h -2.82222 -2.82222 v -2.82222 -2.82222 h -5.64445 -5.64444 v -5.64445 -5.64444 h 5.64444 5.64445 v -2.82222 -2.82223 h 2.82222 2.82222 v -2.82222 -2.82222 h 48.33056 48.33055 v 2.82222 2.82222 h 2.82222 2.82222 v 2.82223 2.82222 h 5.64445 5.64444 v 5.64444 5.64445 h 5.64445 5.64444 v 14.11111 14.11111 h 8.46667 8.46666 v 45.50833 45.50834 h -5.64444 -5.64444 v 2.82222 2.82222 h -14.11111 -14.11112 v -8.64306 -8.64305 h -8.46666 -8.46667 v 5.82083 5.82084 h -19.93194 -19.93195 v 2.82222 2.82222 z m 76.55278,-17.28611 h 5.64444 v -14.11111 -14.11111 h -8.46666 -8.46667 v -5.64445 -5.64444 h -5.64444 -5.64445 v 5.64444 5.64445 h -11.46528 -11.46527 v 2.82222 2.82222 h -2.82223 -2.82222 v 2.82222 2.82223 h -11.28889 -11.28888 v -5.64445 -5.64444 h 5.64444 5.64444 v -5.64445 -5.64444 h -5.64444 -5.64444 v 5.64444 5.64445 h -5.64445 -5.64444 v 8.46666 8.46667 h 25.4 25.4 v -2.82222 -2.82222 h 2.99861 2.99861 v -2.82223 -2.82222 h 8.46666 8.46667 v 2.82222 2.82223 h 2.82222 2.82222 v 8.46666 8.46667 z"
         id="path28089"
         inkscape:connector-curvature="0" />
      <path
         style="fill:#5f5f5f;stroke-width:0.35277778"
         d="m 404.86175,62.7345 h -45.33194 v -5.644444 -5.644445 h 36.86528 36.86527 V 23.223389 -4.9988333 h 8.46667 8.46667 V 28.867833 62.7345 Z m 102.30556,0 h -45.33195 v -5.644444 -5.644445 h 39.6875 39.6875 V 23.223389 -4.9988333 h 5.64444 5.64445 V 28.867833 62.7345 Z m 104.77499,0 h -48.15416 v -8.466667 -8.466666 h 2.82222 2.82222 v 2.822222 2.822222 h 36.86528 36.86527 V 23.223389 -4.9988333 h 8.46667 8.46667 V 28.867833 62.7345 Z m 104.95139,0 h -45.50833 v -5.644444 -5.644445 h 39.86388 39.86389 V 23.223389 -4.9988333 h 5.64444 5.64445 V 28.867833 62.7345 Z m -363.00832,-79.375 h -45.50834 v -5.644444 -5.644445 h 36.86528 36.86528 v -22.577778 -22.577777 h -25.4 -25.4 v -5.820834 -5.820833 h 8.46667 8.46666 v -5.644445 -5.644444 h 5.64445 5.64444 v -8.46667 -8.46666 h 5.64444 5.64445 v -5.64445 -5.64444 h -5.64445 -5.64444 v -5.64445 -5.64444 H 345.4187 331.30759 v -5.64445 -5.64444 h 5.64444 5.64445 v -2.82222 -2.82222 h 8.46666 8.46667 v -5.82084 -5.82083 h 39.6875 39.6875 v 5.82083 5.82084 h 19.93194 19.93195 v 2.82222 2.82222 h 5.64444 5.64444 v 5.64444 5.64445 h -14.11111 -14.11111 v 5.64444 5.64445 h -5.82083 -5.82083 v 5.64444 5.64445 h 5.82083 5.82083 v 2.82222 2.82222 h 2.82222 2.82223 v 5.64445 5.64444 h 5.64444 5.64445 v 5.644444 5.644445 h 11.28888 11.28889 v 34.043055 34.043056 h -45.33194 -45.33194 v -5.644444 -5.644445 h 39.6875 39.68749 V -50.507167 -73.084944 H 461.65897 433.26036 V -81.728 -90.371056 h -2.82222 -2.82222 v -2.822222 -2.822222 h -2.82222 -2.82222 v -2.822222 -2.822218 H 410.68259 399.3937 v 2.822218 2.822222 h -2.82222 -2.82223 v 2.822222 2.822222 h -2.82222 -2.82222 v 2.822223 2.822222 h 5.64444 5.64445 v 34.043055 34.043056 z m 36.86527,-107.59722 h 8.64306 v -5.64445 -5.64444 h -8.64306 -8.64305 v 5.64444 5.64445 z m 39.6875,0 h 8.46667 v -5.64445 -5.64444 h -8.46667 -8.46666 v 5.64444 5.64445 z M 558.14369,-16.6405 h -45.50833 v -5.644444 -5.644445 h 39.6875 39.6875 v -22.577778 -22.577777 h 5.82083 5.82083 v 28.222222 28.222222 z m 104.95139,0 h -48.15417 v -5.644444 -5.644445 h 42.50972 42.50972 v -22.577778 -22.577777 h 5.64445 5.64444 v 28.222222 28.222222 z m 104.77499,0 h -45.33194 v -5.644444 -5.644445 h 39.6875 39.6875 V -56.328 -84.726611 h 5.64444 5.64445 V -50.683556 -16.6405 Z M 614.76452,-84.726611 h -34.04305 v -5.644445 -5.644444 h -2.82222 -2.82222 v -5.64444 -5.64445 h 28.39861 28.39861 v -2.82222 -2.82222 h 39.68749 39.6875 v 5.64444 5.64445 h 25.57639 25.57639 v 8.466662 8.466667 h -34.04306 -34.04305 v -2.822222 -2.822223 h -22.75417 -22.75416 v 2.822223 2.822222 z m 14.2875,-62.088889 h -14.11111 v -2.82222 -2.82222 h 14.11111 14.11111 v 2.82222 2.82222 z m 85.01945,0 h -14.11112 v -8.64306 -8.64305 h 5.64445 5.64444 v -14.11111 -14.11111 h -8.46666 -8.46667 v -5.64445 -5.64444 h -5.64444 -5.64445 v 5.64444 5.64445 h -5.82083 -5.82083 v -5.64445 -5.64444 h 5.82083 5.82083 v -8.46667 -8.46667 h 14.11111 14.11111 v -22.75416 -22.75417 h -5.64444 -5.64445 v 11.28889 11.28889 h -8.46666 -8.46667 v -11.28889 -11.28889 h -5.82083 -5.82083 v -2.82222 -2.82222 h -8.46667 -8.46667 v 8.46666 8.46667 h -5.64444 -5.64445 v -8.46667 -8.46666 h -5.64444 -5.64444 v 2.82222 2.82222 h -5.64445 -5.64444 v 8.46667 8.46666 h -5.64445 -5.64444 v -2.82222 -2.82222 h -2.82222 -2.82223 v -2.82222 -2.82222 h -2.99861 -2.99861 v -2.82223 -2.82222 h -2.82222 -2.82222 v -2.82222 -2.82222 h -5.64445 -5.64444 v -5.64445 -5.64444 h 5.64444 5.64445 v -2.82222 -2.82223 h 2.82222 2.82222 v -2.82222 -2.82222 h 48.33056 48.33055 v 2.82222 2.82222 h 2.82222 2.82222 v 2.82223 2.82222 h 5.64445 5.64444 v 5.64444 5.64445 h 5.64445 5.64444 v 14.11111 14.11111 h 8.46667 8.46666 v 45.50833 45.50834 h -5.64444 -5.64444 v 2.82222 2.82222 z m -360.1861,-28.575 h -11.28889 v -14.11111 -14.11111 h 8.46666 8.46667 v -11.46528 -11.46528 h 2.82222 2.82222 v -2.82222 -2.82222 h 36.86528 36.86528 v 2.82222 2.82222 h 19.93194 19.93195 v 5.82084 5.82083 h -22.75417 -22.75417 v 11.28889 11.28889 h -5.64444 -5.64444 v -11.28889 -11.28889 h -14.11112 -14.11111 v 5.64444 5.64445 h -5.82083 -5.82083 v 5.64444 5.64445 h 5.82083 5.82083 v 2.82222 2.82222 H 382.28398 370.8187 v -8.46667 -8.46666 h -5.64445 -5.64444 v 11.28889 11.28889 h 2.82222 2.82222 v 2.82222 2.82222 z m 99.30694,0 h -25.57639 v -2.82222 -2.82222 h 5.64444 5.64445 v -5.64445 -5.64444 h 5.64444 5.64445 v 5.64444 5.64445 h 14.2875 14.2875 v 2.82222 2.82222 z m 147.4611,0 h -8.64305 v -8.46667 -8.46666 h 5.82083 5.82083 v -2.82223 -2.82222 h 2.82223 2.82222 v -2.82222 -2.82222 h 11.28889 11.28889 v 5.64444 5.64445 h -5.64445 -5.64444 v 2.82222 2.82222 h -2.82222 -2.82223 v 2.82222 2.82223 h -2.82222 -2.82222 v 2.82222 2.82222 z m 19.93195,-39.51111 h -11.28889 v -8.64306 -8.64305 h 16.93333 16.93333 v 5.82083 5.82083 h -5.64444 -5.64444 v 2.82223 2.82222 z"
         id="path28087"
         inkscape:connector-curvature="0" />
      <path
         style="fill:#b5291e;stroke-width:0.35277778"
         d="m 356.70759,-73.084944 h -25.4 v -5.820834 -5.820833 h 8.46667 8.46666 v -5.644445 -5.644444 h 5.64445 5.64444 v -8.46667 -8.46666 h 5.64444 5.64445 v -5.64445 -5.64444 h -5.64445 -5.64444 v -5.64445 -5.64444 H 345.4187 331.30759 v -5.64445 -5.64444 h 5.64444 5.64445 v -2.82222 -2.82222 h 8.46666 8.46667 v -5.82084 -5.82083 h 39.6875 39.6875 v 5.82083 5.82084 h 19.93194 19.93195 v 2.82222 2.82222 h 5.64444 5.64444 v 5.64444 5.64445 h -14.11111 -14.11111 v 5.64444 5.64445 h -5.82083 -5.82083 v 5.64444 5.64445 h 5.82083 5.82083 v 2.82222 2.82222 h 2.82222 2.82223 v 5.64445 5.64444 h 5.64444 5.64445 v 5.644444 5.644445 h 5.64444 5.64444 v 5.820833 5.820834 H 461.65897 433.26036 V -81.728 -90.371056 h -2.82222 -2.82222 v -2.822222 -2.822222 h -2.82222 -2.82222 v -2.822222 -2.822218 H 410.68259 399.3937 v 2.822218 2.822222 h -2.82222 -2.82223 v 2.822222 2.822222 h -2.82222 -2.82222 v 5.820834 5.820833 h -2.99861 -2.99861 v 2.822222 2.822223 z m 34.04305,-51.152776 h 8.64306 v -5.64445 -5.64444 h -8.64306 -8.64305 v 5.64444 5.64445 z m 39.6875,0 h 8.46667 v -5.64445 -5.64444 h -8.46667 -8.46666 v 5.64444 5.64445 z m 184.32638,39.511109 h -34.04305 v -5.644445 -5.644444 h -2.82222 -2.82222 v -5.64444 -5.64445 h 28.39861 28.39861 v -2.82222 -2.82222 h 39.68749 39.6875 v 5.64444 5.64445 h 25.57639 25.57639 v 8.466662 8.466667 h -34.04306 -34.04305 v -2.822222 -2.822223 h -22.75417 -22.75416 v 2.822223 2.822222 z m 14.2875,-62.088889 h -14.11111 v -2.82222 -2.82222 h 14.11111 14.11111 v 2.82222 2.82222 z m 85.01945,0 h -14.11112 v -8.64306 -8.64305 h 5.64445 5.64444 v -14.11111 -14.11111 h -8.46666 -8.46667 v -5.64445 -5.64444 h -5.64444 -5.64445 v 5.64444 5.64445 h -5.82083 -5.82083 v -5.64445 -5.64444 h 5.82083 5.82083 v -8.46667 -8.46667 h 14.11111 14.11111 v -22.75416 -22.75417 h -5.64444 -5.64445 v 11.28889 11.28889 h -8.46666 -8.46667 v -11.28889 -11.28889 h -5.82083 -5.82083 v -2.82222 -2.82222 h -8.46667 -8.46667 v 8.46666 8.46667 h -5.64444 -5.64445 v -8.46667 -8.46666 h -5.64444 -5.64444 v 2.82222 2.82222 h -5.64445 -5.64444 v 8.46667 8.46666 h -5.64445 -5.64444 v -2.82222 -2.82222 h -2.82222 -2.82223 v -2.82222 -2.82222 h -2.99861 -2.99861 v -2.82223 -2.82222 h -2.82222 -2.82222 v -2.82222 -2.82222 h -5.64445 -5.64444 v -5.64445 -5.64444 h 5.64444 5.64445 v -2.82222 -2.82223 h 2.82222 2.82222 v -2.82222 -2.82222 h 48.33056 48.33055 v 2.82222 2.82222 h 2.82222 2.82222 v 2.82223 2.82222 h 5.64445 5.64444 v 5.64444 5.64445 h 5.64445 5.64444 v 14.11111 14.11111 h 8.46667 8.46666 v 45.50833 45.50834 h -5.64444 -5.64444 v 2.82222 2.82222 z m -360.1861,-28.575 h -11.28889 v -14.11111 -14.11111 h 8.46666 8.46667 v -11.46528 -11.46528 h 2.82222 2.82222 v -2.82222 -2.82222 h 36.86528 36.86528 v 2.82222 2.82222 h 19.93194 19.93195 v 5.82084 5.82083 h -22.75417 -22.75417 v 11.28889 11.28889 h -5.64444 -5.64444 v -11.28889 -11.28889 h -14.11112 -14.11111 v 5.64444 5.64445 h -5.82083 -5.82083 v 5.64444 5.64445 h 5.82083 5.82083 v 2.82222 2.82222 H 382.28398 370.8187 v -8.46667 -8.46666 h -5.64445 -5.64444 v 11.28889 11.28889 h 2.82222 2.82222 v 2.82222 2.82222 z m 99.30694,0 h -25.57639 v -2.82222 -2.82222 h 5.64444 5.64445 v -5.64445 -5.64444 h 5.64444 5.64445 v 5.64444 5.64445 h 14.2875 14.2875 v 2.82222 2.82222 z m 147.4611,0 h -8.64305 v -8.46667 -8.46666 h 5.82083 5.82083 v -2.82223 -2.82222 h 2.82223 2.82222 v -2.82222 -2.82222 h 11.28889 11.28889 v 5.64444 5.64445 h -5.64445 -5.64444 v 2.82222 2.82222 h -2.82222 -2.82223 v 2.82222 2.82223 h -2.82222 -2.82222 v 2.82222 2.82222 z m 19.93195,-39.51111 h -11.28889 v -8.64306 -8.64305 h 16.93333 16.93333 v 5.82083 5.82083 h -5.64444 -5.64444 v 2.82223 2.82222 z"
         id="path28085"
         inkscape:connector-curvature="0" />
      <path
         style="fill:#667204;stroke-width:0.35277778"
         d="m 356.70759,-73.084944 h -25.4 v -5.820834 -5.820833 h 8.46667 8.46666 v -5.644445 -5.644444 h 19.93195 19.93194 v 8.643056 8.643055 h -2.99861 -2.99861 v 2.822222 2.822223 z m 104.95138,0 H 433.26036 V -84.550222 -96.0155 h 22.75417 22.75417 v 5.644444 5.644445 h 5.64444 5.64444 v 5.820833 5.820834 z m -96.48472,-51.152776 h -5.64444 v -5.64445 -5.64444 H 345.4187 331.30759 v -5.64445 -5.64444 h 5.64444 5.64445 v -2.82222 -2.82222 h 8.46666 8.46667 v -5.82084 -5.82083 h 11.28889 11.28889 v 14.2875 14.2875 h -5.64445 -5.64444 v 5.64444 5.64445 z m 90.84028,0 h -5.82083 v -5.64445 -5.64444 h -5.64445 -5.64444 v -8.46667 -8.46666 h -2.82222 -2.82223 v -2.99862 -2.99861 h -2.82222 -2.82222 v 2.99861 2.99862 h -2.82222 -2.82222 v 2.82222 2.82222 H 410.68259 399.3937 v -8.64306 -8.64305 h 19.75555 19.75556 v 5.82083 5.82084 h 19.93194 19.93195 v 2.82222 2.82222 h 5.64444 5.64444 v 5.64444 5.64445 h -14.11111 -14.11111 v 5.64444 5.64445 z M 353.88537,-175.3905 h -11.28889 v -14.11111 -14.11111 h 8.46666 8.46667 v -5.64445 -5.64444 h 17.10972 17.10972 v 5.64444 5.64445 h -5.82083 -5.82083 v 5.64444 5.64445 h 5.82083 5.82083 v 2.82222 2.82222 H 382.28398 370.8187 v -8.46667 -8.46666 h -5.64445 -5.64444 v 11.28889 11.28889 h 2.82222 2.82222 v 2.82222 2.82222 z m 99.30694,0 h -25.57639 v -2.82222 -2.82222 h 5.64444 5.64445 v -5.64445 -5.64444 h 5.64444 5.64445 v 5.64444 5.64445 h 14.2875 14.2875 v 2.82222 2.82222 z m -25.57639,-16.93333 h -5.64444 v -11.28889 -11.28889 h 5.64444 5.64444 v 11.28889 11.28889 z m 221.19166,-62.44167 h -5.64445 v -8.46667 -8.46666 h 5.64445 5.64444 v 8.46666 8.46667 z"
         id="path28083"
         inkscape:connector-curvature="0" />
      <path
         style="fill:#000000;stroke-width:0.35277778"
         d="m 648.80758,-254.7655 h -5.64445 v -8.46667 -8.46666 h 5.64445 5.64444 v 8.46666 8.46667 z"
         id="path28081"
         inkscape:connector-curvature="0" />
    </g>
    <g
       aria-label="NOt found!

OUR PRINCESS IS IN 
ANOTHER CASTLE!"
       style="font-style:normal;font-variant:normal;font-weight:normal;font-stretch:normal;font-size:176.3888855px;line-height:0.25;font-family:'8BIT WONDER';-inkscape-font-specification:'8BIT WONDER';letter-spacing:0px;word-spacing:0px;fill:#ffffff;fill-opacity:1;stroke:none;stroke-width:0.26458332"
       id="text28101">
      <path
         d="M 279.12412,-596.74939 H 255.6056 v -47.03704 h -11.75926 v 47.03704 h -23.51851 v -58.7963 h 52.91666 v 5.87963 h 5.87963 z"
         style="font-size:70.55555725px;line-height:0.25;text-align:center;text-anchor:middle;fill:#ffffff;fill-opacity:1;stroke-width:0.26458332"
         id="path829" />
      <path
         d="m 349.67968,-602.62902 h -5.87963 v 5.87963 h -47.03704 v -5.87963 h -5.87963 v -47.03704 h 5.87963 v -5.87963 h 47.03704 v 5.87963 h 5.87963 z m -23.51852,-5.87963 v -35.27778 H 314.4019 v 35.27778 z"
         style="font-size:70.55555725px;line-height:0.25;text-align:center;text-anchor:middle;fill:#ffffff;fill-opacity:1;stroke-width:0.26458332"
         id="path831" />
      <path
         d="m 420.23524,-643.78643 h -17.63889 v 47.03704 h -23.51852 v -47.03704 h -17.63889 v -11.75926 h 58.7963 z"
         style="font-size:70.55555725px;line-height:0.25;text-align:center;text-anchor:middle;fill:#ffffff;fill-opacity:1;stroke-width:0.26458332"
         id="path833" />
      <path
         d="M 526.06858,-643.78643 H 490.7908 v 11.75926 h 17.63889 v 11.75926 H 490.7908 v 23.51852 h -23.51852 v -52.91667 h 5.87963 v -5.87963 h 52.91667 z"
         style="font-size:70.55555725px;line-height:0.25;text-align:center;text-anchor:middle;fill:#ffffff;fill-opacity:1;stroke-width:0.26458332"
         id="path835" />
      <path
         d="m 596.62412,-602.62902 h -5.87963 v 5.87963 h -47.03703 v -5.87963 h -5.87963 v -47.03704 h 5.87963 v -5.87963 h 47.03703 v 5.87963 h 5.87963 z m -23.51852,-5.87963 v -35.27778 h -11.75926 v 35.27778 z"
         style="font-size:70.55555725px;line-height:0.25;text-align:center;text-anchor:middle;fill:#ffffff;fill-opacity:1;stroke-width:0.26458332"
         id="path837" />
      <path
         d="m 667.1797,-602.62902 h -5.87963 v 5.87963 h -47.03704 v -5.87963 h -5.87963 v -52.91667 h 23.51852 v 47.03704 h 11.75926 v -47.03704 h 23.51852 z"
         style="font-size:70.55555725px;line-height:0.25;text-align:center;text-anchor:middle;fill:#ffffff;fill-opacity:1;stroke-width:0.26458332"
         id="path839" />
      <path
         d="m 737.73524,-596.74939 h -23.51852 v -47.03704 h -11.75926 v 47.03704 h -23.51852 v -58.7963 h 52.91667 v 5.87963 h 5.87963 z"
         style="font-size:70.55555725px;line-height:0.25;text-align:center;text-anchor:middle;fill:#ffffff;fill-opacity:1;stroke-width:0.26458332"
         id="path841" />
      <path
         d="m 808.29081,-602.62902 h -5.87963 v 5.87963 h -52.91667 v -58.7963 h 52.91667 v 5.87963 h 5.87963 z m -23.51852,-5.87963 v -35.27778 h -11.75926 v 35.27778 z"
         style="font-size:70.55555725px;line-height:0.25;text-align:center;text-anchor:middle;fill:#ffffff;fill-opacity:1;stroke-width:0.26458332"
         id="path843" />
      <path
         d="m 846.66342,-673.6956 -1.34359,55.75887 h -8.78499 l -1.44694,-55.75887 z m -0.51677,76.94621 h -10.54199 v -10.90373 h 10.54199 z"
         style="font-size:105.83333588px;line-height:0.25;text-align:center;text-anchor:middle;fill:#ffffff;fill-opacity:1"
         id="path845" />
      <path
         d="m 70.695841,-465.4687 h -5.879629 v 5.87963 H 17.779174 v -5.87963 h -5.87963 v -47.03704 h 5.87963 v -5.87963 h 47.037038 v 5.87963 h 5.879629 z m -23.518519,-5.87963 v -35.27778 H 35.418063 v 35.27778 z"
         style="font-size:70.55555725px;line-height:0.25;text-align:center;text-anchor:middle;fill:#ffffff;fill-opacity:1;stroke-width:0.26458332"
         id="path847" />
      <path
         d="m 141.2514,-465.4687 h -5.87963 v 5.87963 H 88.334731 v -5.87963 h -5.87963 v -52.91667 h 23.518519 v 47.03704 h 11.75926 v -47.03704 h 23.51852 z"
         style="font-size:70.55555725px;line-height:0.25;text-align:center;text-anchor:middle;fill:#ffffff;fill-opacity:1;stroke-width:0.26458332"
         id="path849" />
      <path
         d="m 211.80696,-459.58907 h -23.51852 v -23.51852 h -11.75926 v 23.51852 h -23.51852 v -58.7963 h 52.91667 v 5.87963 h 5.87963 v 17.63889 h -5.87963 v 11.75926 h 5.87963 z m -23.51852,-35.27778 v -11.75926 h -11.75926 v 11.75926 z"
         style="font-size:70.55555725px;line-height:0.25;text-align:center;text-anchor:middle;fill:#ffffff;fill-opacity:1;stroke-width:0.26458332"
         id="path851" />
      <path
         d="m 317.6403,-488.98722 h -5.87963 v 5.87963 h -29.39815 v 23.51852 H 258.844 v -58.7963 h 52.91667 v 5.87963 h 5.87963 z m -23.51852,-5.87963 v -11.75926 h -11.75926 v 11.75926 z"
         style="font-size:70.55555725px;line-height:0.25;text-align:center;text-anchor:middle;fill:#ffffff;fill-opacity:1;stroke-width:0.26458332"
         id="path853" />
      <path
         d="m 388.19584,-459.58907 h -23.51852 v -23.51852 h -11.75926 v 23.51852 h -23.51852 v -58.7963 h 52.91667 v 5.87963 h 5.87963 v 17.63889 h -5.87963 v 11.75926 h 5.87963 z m -23.51852,-35.27778 v -11.75926 h -11.75926 v 11.75926 z"
         style="font-size:70.55555725px;line-height:0.25;text-align:center;text-anchor:middle;fill:#ffffff;fill-opacity:1;stroke-width:0.26458332"
         id="path855" />
      <path
         d="m 423.47364,-459.58907 h -23.51852 v -58.7963 h 23.51852 z"
         style="font-size:70.55555725px;line-height:0.25;text-align:center;text-anchor:middle;fill:#ffffff;fill-opacity:1;stroke-width:0.26458332"
         id="path857" />
      <path
         d="m 494.02918,-459.58907 h -23.51851 v -47.03704 h -11.75926 v 47.03704 h -23.51852 v -58.7963 h 52.91667 v 5.87963 h 5.87962 z"
         style="font-size:70.55555725px;line-height:0.25;text-align:center;text-anchor:middle;fill:#ffffff;fill-opacity:1;stroke-width:0.26458332"
         id="path859" />
      <path
         d="m 564.58476,-459.58907 h -52.91667 v -5.87963 h -5.87963 v -47.03704 h 5.87963 v -5.87963 h 52.91667 v 11.75926 h -35.27778 v 35.27778 h 35.27778 z"
         style="font-size:70.55555725px;line-height:0.25;text-align:center;text-anchor:middle;fill:#ffffff;fill-opacity:1;stroke-width:0.26458332"
         id="path861" />
      <path
         d="m 635.1403,-459.58907 h -52.91667 v -5.87963 H 576.344 v -47.03704 h 5.87963 v -5.87963 h 52.91667 v 11.75926 h -35.27778 v 11.75926 h 17.63889 v 11.75926 h -17.63889 v 11.75926 h 35.27778 z"
         style="font-size:70.55555725px;line-height:0.25;text-align:center;text-anchor:middle;fill:#ffffff;fill-opacity:1;stroke-width:0.26458332"
         id="path863" />
      <path
         d="m 705.69584,-465.4687 h -5.87963 v 5.87963 h -52.91667 v -11.75926 h 35.27778 v -11.75926 h -29.39815 v -5.87963 h -5.87963 v -23.51852 h 5.87963 v -5.87963 h 52.91667 v 11.75926 h -35.27778 v 11.75926 h 29.39815 v 5.87963 h 5.87963 z"
         style="font-size:70.55555725px;line-height:0.25;text-align:center;text-anchor:middle;fill:#ffffff;fill-opacity:1;stroke-width:0.26458332"
         id="path865" />
      <path
         d="m 776.25138,-465.4687 h -5.87963 v 5.87963 h -52.91666 v -11.75926 h 35.27777 v -11.75926 h -29.39814 v -5.87963 h -5.87963 v -23.51852 h 5.87963 v -5.87963 h 52.91666 v 11.75926 H 740.9736 v 11.75926 h 29.39815 v 5.87963 h 5.87963 z"
         style="font-size:70.55555725px;line-height:0.25;text-align:center;text-anchor:middle;fill:#ffffff;fill-opacity:1;stroke-width:0.26458332"
         id="path867" />
      <path
         d="m 846.80698,-459.58907 h -23.51852 v -58.7963 h 23.51852 z"
         style="font-size:70.55555725px;line-height:0.25;text-align:center;text-anchor:middle;fill:#ffffff;fill-opacity:1;stroke-width:0.26458332"
         id="path869" />
      <path
         d="m 917.36253,-465.4687 h -5.87963 v 5.87963 h -52.91667 v -11.75926 h 35.27778 v -11.75926 h -29.39815 v -5.87963 h -5.87963 v -23.51852 h 5.87963 v -5.87963 h 52.91667 v 11.75926 h -35.27778 v 11.75926 h 29.39815 v 5.87963 h 5.87963 z"
         style="font-size:70.55555725px;line-height:0.25;text-align:center;text-anchor:middle;fill:#ffffff;fill-opacity:1;stroke-width:0.26458332"
         id="path871" />
      <path
         d="m 987.91806,-459.58907 h -23.51852 v -58.7963 h 23.51852 z"
         style="font-size:70.55555725px;line-height:0.25;text-align:center;text-anchor:middle;fill:#ffffff;fill-opacity:1;stroke-width:0.26458332"
         id="path873" />
      <path
         d="m 1058.4737,-459.58907 h -23.5185 v -47.03704 h -11.7593 v 47.03704 h -23.51852 v -58.7963 h 52.91662 v 5.87963 h 5.8797 z"
         style="font-size:70.55555725px;line-height:0.25;text-align:center;text-anchor:middle;fill:#ffffff;fill-opacity:1;stroke-width:0.26458332"
         id="path875" />
      <path
         d="M 102.73523,-375.80435 H 79.216711 v -23.51852 H 67.457452 v 23.51852 H 43.938933 v -52.91667 h 5.879629 v -5.87963 H 96.8556 v 5.87963 h 5.87963 z m -23.518519,-35.27778 v -11.75926 H 67.457452 v 11.75926 z"
         style="font-size:70.55555725px;line-height:0.25;text-align:center;text-anchor:middle;fill:#ffffff;fill-opacity:1;stroke-width:0.26458332"
         id="path877" />
      <path
         d="m 173.29079,-375.80435 h -23.51852 v -47.03704 h -11.75926 v 47.03704 h -23.51852 v -58.7963 h 52.91667 v 5.87963 h 5.87963 z"
         style="font-size:70.55555725px;line-height:0.25;text-align:center;text-anchor:middle;fill:#ffffff;fill-opacity:1;stroke-width:0.26458332"
         id="path879" />
      <path
         d="m 243.84634,-381.68398 h -5.87963 v 5.87963 h -47.03703 v -5.87963 h -5.87963 v -47.03704 h 5.87963 v -5.87963 h 47.03703 v 5.87963 h 5.87963 z m -23.51851,-5.87963 v -35.27778 h -11.75926 v 35.27778 z"
         style="font-size:70.55555725px;line-height:0.25;text-align:center;text-anchor:middle;fill:#ffffff;fill-opacity:1;stroke-width:0.26458332"
         id="path881" />
      <path
         d="m 314.4019,-422.84139 h -17.63889 v 47.03704 h -23.51852 v -47.03704 H 255.6056 v -11.75926 h 58.7963 z"
         style="font-size:70.55555725px;line-height:0.25;text-align:center;text-anchor:middle;fill:#ffffff;fill-opacity:1;stroke-width:0.26458332"
         id="path883" />
      <path
         d="m 384.95746,-375.80435 h -23.51852 v -23.51852 h -11.75926 v 23.51852 h -23.51852 v -58.7963 h 23.51852 v 23.51852 h 11.75926 v -23.51852 h 23.51852 z"
         style="font-size:70.55555725px;line-height:0.25;text-align:center;text-anchor:middle;fill:#ffffff;fill-opacity:1;stroke-width:0.26458332"
         id="path885" />
      <path
         d="m 455.513,-375.80435 h -52.91667 v -5.87963 h -5.87963 v -47.03704 h 5.87963 v -5.87963 H 455.513 v 11.75926 h -35.27778 v 11.75926 h 17.63889 v 11.75926 h -17.63889 v 11.75926 H 455.513 Z"
         style="font-size:70.55555725px;line-height:0.25;text-align:center;text-anchor:middle;fill:#ffffff;fill-opacity:1;stroke-width:0.26458332"
         id="path887" />
      <path
         d="m 526.06857,-375.80435 h -23.51852 v -23.51852 H 490.7908 v 23.51852 h -23.51852 v -58.7963 h 52.91666 v 5.87963 h 5.87963 v 17.63889 h -5.87963 v 11.75926 h 5.87963 z m -23.51852,-35.27778 v -11.75926 H 490.7908 v 11.75926 z"
         style="font-size:70.55555725px;line-height:0.25;text-align:center;text-anchor:middle;fill:#ffffff;fill-opacity:1;stroke-width:0.26458332"
         id="path889" />
      <path
         d="m 631.90192,-375.80435 h -52.91667 v -5.87963 h -5.87963 v -47.03704 h 5.87963 v -5.87963 h 52.91667 v 11.75926 h -35.27778 v 35.27778 h 35.27778 z"
         style="font-size:70.55555725px;line-height:0.25;text-align:center;text-anchor:middle;fill:#ffffff;fill-opacity:1;stroke-width:0.26458332"
         id="path891" />
      <path
         d="m 702.45746,-375.80435 h -23.51852 v -23.51852 h -11.75926 v 23.51852 h -23.51852 v -52.91667 h 5.87963 v -5.87963 h 47.03704 v 5.87963 h 5.87963 z m -23.51852,-35.27778 v -11.75926 h -11.75926 v 11.75926 z"
         style="font-size:70.55555725px;line-height:0.25;text-align:center;text-anchor:middle;fill:#ffffff;fill-opacity:1;stroke-width:0.26458332"
         id="path893" />
      <path
         d="m 773.013,-381.68398 h -5.87963 v 5.87963 H 714.2167 v -11.75926 h 35.27778 v -11.75926 h -29.39815 v -5.87963 h -5.87963 v -23.51852 h 5.87963 v -5.87963 H 773.013 v 11.75926 h -35.27778 v 11.75926 h 29.39815 v 5.87963 h 5.87963 z"
         style="font-size:70.55555725px;line-height:0.25;text-align:center;text-anchor:middle;fill:#ffffff;fill-opacity:1;stroke-width:0.26458332"
         id="path895" />
      <path
         d="m 843.5686,-422.84139 h -17.63889 v 47.03704 H 802.4112 v -47.03704 h -17.63889 v -11.75926 h 58.79629 z"
         style="font-size:70.55555725px;line-height:0.25;text-align:center;text-anchor:middle;fill:#ffffff;fill-opacity:1;stroke-width:0.26458332"
         id="path897" />
      <path
         d="m 914.12415,-375.80435 h -58.7963 v -58.7963 h 23.51852 v 47.03704 h 35.27778 z"
         style="font-size:70.55555725px;line-height:0.25;text-align:center;text-anchor:middle;fill:#ffffff;fill-opacity:1;stroke-width:0.26458332"
         id="path899" />
      <path
         d="m 984.67969,-375.80435 h -52.91667 v -5.87963 h -5.87963 v -47.03704 h 5.87963 v -5.87963 h 52.91667 v 11.75926 h -35.27778 v 11.75926 h 17.63889 v 11.75926 h -17.63889 v 11.75926 h 35.27778 z"
         style="font-size:70.55555725px;line-height:0.25;text-align:center;text-anchor:middle;fill:#ffffff;fill-opacity:1;stroke-width:0.26458332"
         id="path901" />
      <path
         d="m 1023.0523,-452.75056 -1.3436,55.75887 h -8.785 l -1.4469,-55.75887 z m -0.5168,76.94621 h -10.542 v -10.90373 h 10.542 z"
         style="font-size:105.83333588px;text-align:center;text-anchor:middle;fill:#ffffff;fill-opacity:1"
         id="path903" />
    </g>
  </g>
</svg>
