<?xml version="1.0" encoding="UTF-8" standalone="no"?>
<!-- Created with Inkscape (http://www.inkscape.org/) -->

<svg
   xmlns:dc="http://purl.org/dc/elements/1.1/"
   xmlns:cc="http://creativecommons.org/ns#"
   xmlns:rdf="http://www.w3.org/1999/02/22-rdf-syntax-ns#"
   xmlns:svg="http://www.w3.org/2000/svg"
   xmlns="http://www.w3.org/2000/svg"
   xmlns:sodipodi="http://sodipodi.sourceforge.net/DTD/sodipodi-0.dtd"
   xmlns:inkscape="http://www.inkscape.org/namespaces/inkscape"
   width="210mm"
   height="297mm"
   viewBox="0 0 210 297"
   version="1.1"
   id="svg8"
   inkscape:version="0.92.5 (2060ec1f9f, 2020-04-08)"
   sodipodi:docname="steve.svg">
  <defs
     id="defs2">
    <inkscape:path-effect
       effect="bspline"
       id="path-effect962"
       is_visible="true"
       weight="33.333333"
       steps="2"
       helper_size="0"
       apply_no_weight="true"
       apply_with_weight="true"
       only_selected="false" />
    <inkscape:path-effect
       effect="bspline"
       id="path-effect958"
       is_visible="true"
       weight="33.333333"
       steps="2"
       helper_size="0"
       apply_no_weight="true"
       apply_with_weight="true"
       only_selected="false" />
    <inkscape:path-effect
       effect="bspline"
       id="path-effect954"
       is_visible="true"
       weight="33.333333"
       steps="2"
       helper_size="0"
       apply_no_weight="true"
       apply_with_weight="true"
       only_selected="false" />
    <inkscape:path-effect
       effect="bspline"
       id="path-effect950"
       is_visible="true"
       weight="33.333333"
       steps="2"
       helper_size="0"
       apply_no_weight="true"
       apply_with_weight="true"
       only_selected="false" />
    <inkscape:path-effect
       effect="bspline"
       id="path-effect946"
       is_visible="true"
       weight="33.333333"
       steps="2"
       helper_size="0"
       apply_no_weight="true"
       apply_with_weight="true"
       only_selected="false" />
    <inkscape:path-effect
       effect="bspline"
       id="path-effect942"
       is_visible="true"
       weight="33.333333"
       steps="2"
       helper_size="0"
       apply_no_weight="true"
       apply_with_weight="true"
       only_selected="false" />
    <inkscape:path-effect
       effect="bspline"
       id="path-effect938"
       is_visible="true"
       weight="33.333333"
       steps="2"
       helper_size="0"
       apply_no_weight="true"
       apply_with_weight="true"
       only_selected="false" />
    <inkscape:path-effect
       effect="bspline"
       id="path-effect934"
       is_visible="true"
       weight="33.333333"
       steps="2"
       helper_size="0"
       apply_no_weight="true"
       apply_with_weight="true"
       only_selected="false" />
    <inkscape:path-effect
       effect="bspline"
       id="path-effect930"
       is_visible="true"
       weight="33.333333"
       steps="2"
       helper_size="0"
       apply_no_weight="true"
       apply_with_weight="true"
       only_selected="false" />
    <inkscape:path-effect
       effect="bspline"
       id="path-effect926"
       is_visible="true"
       weight="33.333333"
       steps="2"
       helper_size="0"
       apply_no_weight="true"
       apply_with_weight="true"
       only_selected="false" />
    <inkscape:path-effect
       effect="bspline"
       id="path-effect922"
       is_visible="true"
       weight="33.333333"
       steps="2"
       helper_size="0"
       apply_no_weight="true"
       apply_with_weight="true"
       only_selected="false" />
    <inkscape:path-effect
       effect="bspline"
       id="path-effect918"
       is_visible="true"
       weight="33.333333"
       steps="2"
       helper_size="0"
       apply_no_weight="true"
       apply_with_weight="true"
       only_selected="false" />
    <inkscape:path-effect
       effect="bspline"
       id="path-effect914"
       is_visible="true"
       weight="33.333333"
       steps="2"
       helper_size="0"
       apply_no_weight="true"
       apply_with_weight="true"
       only_selected="false" />
    <inkscape:path-effect
       effect="bspline"
       id="path-effect910"
       is_visible="true"
       weight="33.333333"
       steps="2"
       helper_size="0"
       apply_no_weight="true"
       apply_with_weight="true"
       only_selected="false" />
    <inkscape:path-effect
       effect="bspline"
       id="path-effect906"
       is_visible="true"
       weight="33.333333"
       steps="2"
       helper_size="0"
       apply_no_weight="true"
       apply_with_weight="true"
       only_selected="false" />
    <inkscape:path-effect
       effect="bspline"
       id="path-effect902"
       is_visible="true"
       weight="33.333333"
       steps="2"
       helper_size="0"
       apply_no_weight="true"
       apply_with_weight="true"
       only_selected="false" />
    <inkscape:path-effect
       effect="bspline"
       id="path-effect898"
       is_visible="true"
       weight="33.333333"
       steps="2"
       helper_size="0"
       apply_no_weight="true"
       apply_with_weight="true"
       only_selected="false" />
    <inkscape:path-effect
       effect="bspline"
       id="path-effect894"
       is_visible="true"
       weight="33.333333"
       steps="2"
       helper_size="0"
       apply_no_weight="true"
       apply_with_weight="true"
       only_selected="false" />
    <inkscape:path-effect
       effect="bspline"
       id="path-effect890"
       is_visible="true"
       weight="33.333333"
       steps="2"
       helper_size="0"
       apply_no_weight="true"
       apply_with_weight="true"
       only_selected="false" />
    <inkscape:path-effect
       effect="bspline"
       id="path-effect886"
       is_visible="true"
       weight="33.333333"
       steps="2"
       helper_size="0"
       apply_no_weight="true"
       apply_with_weight="true"
       only_selected="false" />
    <inkscape:path-effect
       effect="bspline"
       id="path-effect882"
       is_visible="true"
       weight="33.333333"
       steps="2"
       helper_size="0"
       apply_no_weight="true"
       apply_with_weight="true"
       only_selected="false" />
    <inkscape:path-effect
       effect="bspline"
       id="path-effect878"
       is_visible="true"
       weight="33.333333"
       steps="2"
       helper_size="0"
       apply_no_weight="true"
       apply_with_weight="true"
       only_selected="false" />
    <inkscape:path-effect
       effect="bspline"
       id="path-effect874"
       is_visible="true"
       weight="33.333333"
       steps="2"
       helper_size="0"
       apply_no_weight="true"
       apply_with_weight="true"
       only_selected="false" />
    <inkscape:path-effect
       effect="bspline"
       id="path-effect836"
       is_visible="true"
       weight="33.333333"
       steps="2"
       helper_size="0"
       apply_no_weight="true"
       apply_with_weight="true"
       only_selected="false" />
    <inkscape:path-effect
       effect="bspline"
       id="path-effect832"
       is_visible="true"
       weight="33.333333"
       steps="2"
       helper_size="0"
       apply_no_weight="true"
       apply_with_weight="true"
       only_selected="false" />
    <inkscape:path-effect
       effect="bspline"
       id="path-effect828"
       is_visible="true"
       weight="33.333333"
       steps="2"
       helper_size="0"
       apply_no_weight="true"
       apply_with_weight="true"
       only_selected="false" />
    <inkscape:path-effect
       effect="bspline"
       id="path-effect836-3"
       is_visible="true"
       weight="33.333333"
       steps="2"
       helper_size="0"
       apply_no_weight="true"
       apply_with_weight="true"
       only_selected="false" />
    <inkscape:path-effect
       effect="bspline"
       id="path-effect832-8"
       is_visible="true"
       weight="33.333333"
       steps="2"
       helper_size="0"
       apply_no_weight="true"
       apply_with_weight="true"
       only_selected="false" />
    <inkscape:path-effect
       effect="bspline"
       id="path-effect828-2"
       is_visible="true"
       weight="33.333333"
       steps="2"
       helper_size="0"
       apply_no_weight="true"
       apply_with_weight="true"
       only_selected="false" />
  </defs>
  <sodipodi:namedview
     id="base"
     pagecolor="#ffffff"
     bordercolor="#666666"
     borderopacity="1.0"
     inkscape:pageopacity="0.0"
     inkscape:pageshadow="2"
     inkscape:zoom="0.49497475"
     inkscape:cx="368.72293"
     inkscape:cy="563.73565"
     inkscape:document-units="mm"
     inkscape:current-layer="layer1"
     showgrid="false"
     showguides="true"
     inkscape:window-width="1366"
     inkscape:window-height="715"
     inkscape:window-x="-8"
     inkscape:window-y="-8"
     inkscape:window-maximized="1" />
  <metadata
     id="metadata5">
    <rdf:RDF>
      <cc:Work
         rdf:about="">
        <dc:format>image/svg+xml</dc:format>
        <dc:type
           rdf:resource="http://purl.org/dc/dcmitype/StillImage" />
        <dc:title></dc:title>
      </cc:Work>
    </rdf:RDF>
  </metadata>
  <g
     inkscape:label="Capa 1"
     inkscape:groupmode="layer"
     id="layer1">
    <path
       style="fill:#070a0b;fill-opacity:1;stroke:#070a0b;stroke-width:0.26458332px;stroke-linecap:butt;stroke-linejoin:miter;stroke-opacity:1"
       d="m 116.9162,224.38154 c 0,0 2.99675,4.06302 2.99675,4.06302 0,0 -15.9695,1e-5 -15.9695,1e-5 0,0 -3.40178,-3.73252 -3.40178,-3.73252 0,0 16.37453,-0.33051 16.37453,-0.33051 z"
       id="path928"
       inkscape:connector-curvature="0"
       inkscape:path-effect="#path-effect930"
       inkscape:original-d="m 116.9162,224.38154 2.99675,4.06302 -15.9695,1e-5 -3.40178,-3.73252 z"
       sodipodi:nodetypes="ccccc"
       transform="matrix(1.2386218,0,0,1.2386218,-4.9042073,-51.115997)" />
    <path
       style="fill:#0a71ac;fill-opacity:1;stroke:#0a71ac;stroke-width:0.26458332px;stroke-linecap:butt;stroke-linejoin:miter;stroke-opacity:1"
       d="m 85.058527,189.89173 c 0,0 32.124683,34.5804 32.124683,34.5804 0,0 3.2967,-16.67451 3.2967,-16.67451 0,0 -27.025298,-29.19866 -27.025298,-29.19866 0,0 -8.396085,11.29277 -8.396085,11.29277 z"
       id="path912"
       inkscape:connector-curvature="0"
       inkscape:path-effect="#path-effect914"
       inkscape:original-d="m 85.058527,189.89173 32.124683,34.5804 3.2967,-16.67451 -27.025298,-29.19866 z"
       sodipodi:nodetypes="ccccc"
       transform="matrix(1.2386218,0,0,1.2386218,-4.9042073,-51.115997)" />
    <path
       style="fill:#3a3c86;fill-opacity:1;stroke:#3a3c86;stroke-width:0.26458332px;stroke-linecap:butt;stroke-linejoin:miter;stroke-opacity:1"
       d="m 66.707458,192.00579 c 0,0 33.834212,32.70626 33.834212,32.70626 0,0 16.44196,-0.0945 16.44196,-0.0945 0,0 -31.925103,-34.72583 -31.925103,-34.72583 0,0 -18.351069,2.11407 -18.351069,2.11407 z"
       id="path908"
       inkscape:connector-curvature="0"
       inkscape:path-effect="#path-effect910"
       inkscape:original-d="m 66.707458,192.00579 33.834212,32.70626 16.44196,-0.0945 -31.925103,-34.72583 z"
       sodipodi:nodetypes="ccccc"
       transform="matrix(1.2386218,0,0,1.2386218,-4.9042073,-51.115997)" />
    <path
       style="fill:#c7784c;fill-opacity:1;stroke:#c7784c;stroke-width:0.26458332px;stroke-linecap:butt;stroke-linejoin:miter;stroke-opacity:1"
       d="m 14.552083,123.22544 c 0,0 17.197917,-6.52009 17.197917,-6.52009 0,0 0.472468,22.3006 0.472468,22.3006 0,0 -17.57589,6.80357 -17.57589,6.80357 0,0 -0.0945,-22.58408 -0.0945,-22.58408 z"
       id="path826"
       inkscape:connector-curvature="0"
       inkscape:path-effect="#path-effect828"
       inkscape:original-d="M 14.552083,123.22544 31.75,116.70535 l 0.472468,22.3006 -17.57589,6.80357 z"
       sodipodi:nodetypes="ccccc"
       transform="matrix(1.2386218,0,0,1.2386218,-4.9042073,-51.115997)" />
    <path
       style="fill:#ffe9ac;fill-opacity:1;stroke:#ffe9ac;stroke-width:0.26458332px;stroke-linecap:butt;stroke-linejoin:miter;stroke-opacity:1"
       d="m 32.00528,116.71118 c 0,0 30.644272,12.08941 30.644272,12.08941 0,0 -0.961709,20.33991 -0.961709,20.33991 0,0 -29.465374,-10.13455 -29.465374,-10.13455 0,0 -0.217189,-22.29477 -0.217189,-22.29477 z"
       id="path830"
       inkscape:connector-curvature="0"
       inkscape:path-effect="#path-effect832"
       inkscape:original-d="M 32.00528,116.71118 62.649552,128.80059 61.687843,149.1405 32.222469,139.00595 Z"
       sodipodi:nodetypes="ccccc"
       transform="matrix(1.2386218,0,0,1.2386218,-4.9042073,-51.115997)" />
    <path
       style="fill:#794e26;fill-opacity:1;stroke:#794e26;stroke-width:0.26458332px;stroke-linecap:butt;stroke-linejoin:miter;stroke-opacity:1"
       d="m 14.646578,145.80952 c 0,0 33.734373,8.78795 33.734373,8.78795 0,0 13.418156,-5.38616 13.418156,-5.38616 0,0 -29.706567,-10.14925 -29.706567,-10.14925 0,0 -17.445962,6.74746 -17.445962,6.74746 z"
       id="path834"
       inkscape:connector-curvature="0"
       inkscape:path-effect="#path-effect836"
       inkscape:original-d="m 14.646578,145.80952 33.734373,8.78795 13.418156,-5.38616 -29.706567,-10.14925 z"
       sodipodi:nodetypes="ccccc"
       transform="matrix(1.2386218,0,0,1.2386218,-4.9042073,-51.115997)" />
    <path
       transform="matrix(1.2386218,0,0,1.2386218,31.73006,-38.475417)"
       style="fill:#5dccad;fill-opacity:1;stroke:#5dccad;stroke-width:0.26458332px;stroke-linecap:butt;stroke-linejoin:miter;stroke-opacity:1"
       d="m 33.072914,118.59523 c 0,0 10.400049,3.92453 10.400049,3.92453 0,0 -0.137726,20.33728 -0.137726,20.33728 0,0 -11.112768,-3.85109 -11.112768,-3.85109 0,0 0.850445,-20.41072 0.850445,-20.41072 z"
       id="path830-4"
       inkscape:connector-curvature="0"
       inkscape:path-effect="#path-effect832-8"
       inkscape:original-d="m 33.072914,118.59523 10.400049,3.92453 -0.137726,20.33728 -11.112768,-3.85109 z"
       sodipodi:nodetypes="ccccc" />
    <path
       transform="matrix(1.0026399,0,0,1.0026399,39.333978,-5.6725324)"
       style="fill:#126fa5;fill-opacity:1;stroke:#126fa5;stroke-width:0.26458332px;stroke-linecap:butt;stroke-linejoin:miter;stroke-opacity:1"
       d="m 15.61289,145.69937 c 0,0 14.907726,4.4622 14.907726,4.4622 0,0 15.430128,-6.39813 15.430128,-6.39813 0,0 -13.865723,-4.84496 -13.865723,-4.84496 0,0 -16.472131,6.78089 -16.472131,6.78089 z"
       id="path834-4"
       inkscape:connector-curvature="0"
       inkscape:path-effect="#path-effect836-3"
       inkscape:original-d="m 15.61289,145.69937 14.907726,4.4622 15.430128,-6.39813 -13.865723,-4.84496 z"
       sodipodi:nodetypes="ccccc" />
    <path
       style="fill:#14b7bc;fill-opacity:1;stroke:#14b7bc;stroke-width:0.26458332px;stroke-linecap:butt;stroke-linejoin:miter;stroke-opacity:1"
       d="m 66.263272,128.54093 c 0,0 43.044378,-9.09386 43.044378,-9.09386 0,0 1.99487,67.37287 1.99487,67.37287 0,0 -5.37469,0.47247 -5.37469,0.47247 0,0 -0.18899,-6.4256 -0.18899,-6.4256 0,0 -6.236614,0.75596 -6.236614,0.75596 0,0 -0.188989,-5.29167 -0.188989,-5.29167 0,0 -33.16741,3.59077 -33.16741,3.59077 0,0 0.117445,-51.38094 0.117445,-51.38094 z"
       id="path872"
       inkscape:connector-curvature="0"
       inkscape:path-effect="#path-effect874"
       inkscape:original-d="m 66.263272,128.54093 43.044378,-9.09386 1.99487,67.37287 -5.37469,0.47247 -0.18899,-6.4256 -6.236614,0.75596 -0.188989,-5.29167 -33.16741,3.59077 z"
       sodipodi:nodetypes="ccccccccc"
       transform="matrix(1.2386218,0,0,1.2386218,-4.9042073,-51.115997)" />
    <path
       style="fill:#5dccad;fill-opacity:1;stroke:#5dccad;stroke-width:0.26458332px;stroke-linecap:butt;stroke-linejoin:miter;stroke-opacity:1"
       d="m 111.30252,186.81994 c 0,0 7.89969,2.87134 7.89969,2.87134 0,0 -1.20271,-65.61467 -1.20271,-65.61467 0,0 -8.69184,-4.62954 -8.69184,-4.62954 0,0 1.99486,67.37287 1.99486,67.37287 z"
       id="path876"
       inkscape:connector-curvature="0"
       inkscape:path-effect="#path-effect878"
       inkscape:original-d="m 111.30252,186.81994 7.89969,2.87134 -1.20271,-65.61467 -8.69184,-4.62954 z"
       sodipodi:nodetypes="ccccc"
       transform="matrix(1.2386218,0,0,1.2386218,-4.9042073,-51.115997)" />
    <path
       style="fill:#b1eff4;fill-opacity:1;stroke:#b1eff4;stroke-width:0.26458332px;stroke-linecap:butt;stroke-linejoin:miter;stroke-opacity:1"
       d="m 106.55936,129.13591 c 0,0 4.70738,-10.0682 4.70738,-10.0682 0,0 17.71763,-6.85082 17.71763,-6.85082 0,0 -2.45684,9.87463 -2.45684,9.87463 0,0 -19.96817,7.04439 -19.96817,7.04439 z"
       id="path880"
       inkscape:connector-curvature="0"
       inkscape:path-effect="#path-effect882"
       inkscape:original-d="m 106.55936,129.13591 4.70738,-10.0682 17.71763,-6.85082 -2.45684,9.87463 z"
       sodipodi:nodetypes="ccccc"
       transform="matrix(1.2386218,0,0,1.2386218,-4.9042073,-51.115997)" />
    <path
       style="fill:#126fa5;fill-opacity:1;stroke:#126fa5;stroke-width:0.26458332px;stroke-linecap:butt;stroke-linejoin:miter;stroke-opacity:1"
       d="m 106.50691,129.422 c 0,0 10.38222,16.671 10.38222,16.671 0,0 19.37128,-7.46502 19.37128,-7.46502 0,0 -9.9082,-16.36114 -9.9082,-16.36114 0,0 -19.8453,7.15516 -19.8453,7.15516 z"
       id="path884"
       inkscape:connector-curvature="0"
       inkscape:path-effect="#path-effect886"
       inkscape:original-d="m 106.50691,129.422 10.38222,16.671 19.37128,-7.46502 -9.9082,-16.36114 z"
       sodipodi:nodetypes="ccccc"
       transform="matrix(1.2386218,0,0,1.2386218,-4.9042073,-51.115997)" />
    <path
       style="fill:#5dccad;fill-opacity:1;stroke:#5dccad;stroke-width:0.26458332px;stroke-linecap:butt;stroke-linejoin:miter;stroke-opacity:1"
       d="m 126.52753,122.09152 c 0,0 2.70001,-9.78404 2.70001,-9.78404 0,0 7.78883,11.20145 7.78883,11.20145 0,0 -0.75596,15.11905 -0.75596,15.11905 0,0 -9.73288,-16.53646 -9.73288,-16.53646 z"
       id="path888"
       inkscape:connector-curvature="0"
       inkscape:path-effect="#path-effect890"
       inkscape:original-d="m 126.52753,122.09152 2.70001,-9.78404 7.78883,11.20145 -0.75596,15.11905 z"
       sodipodi:nodetypes="ccccc"
       transform="matrix(1.2386218,0,0,1.2386218,-4.9042073,-51.115997)" />
    <path
       style="fill:#794e26;fill-opacity:1;stroke:#794e26;stroke-width:0.26458332px;stroke-linecap:butt;stroke-linejoin:miter;stroke-opacity:1"
       d="m 116.88913,146.093 c 0,0 19.65477,30.1436 19.65477,30.1436 0,0 20.5997,-3.68526 20.5997,-3.68526 0,0 -20.88319,-33.92336 -20.88319,-33.92336 0,0 -19.37128,7.46502 -19.37128,7.46502 z"
       id="path892"
       inkscape:connector-curvature="0"
       inkscape:path-effect="#path-effect894"
       inkscape:original-d="m 116.88913,146.093 19.65477,30.1436 20.5997,-3.68526 -20.88319,-33.92336 z"
       sodipodi:nodetypes="ccccc"
       transform="matrix(1.2386218,0,0,1.2386218,-4.9042073,-51.115997)" />
    <path
       style="fill:#ffe9ac;fill-opacity:1;stroke:#ffe9ac;stroke-width:0.26458332px;stroke-linecap:butt;stroke-linejoin:miter;stroke-opacity:1"
       d="m 136.19804,138.52178 c 0,0 0.75596,-15.11905 0.75596,-15.11905 0,0 20.00448,34.37728 20.00448,34.37728 0,0 0.25761,14.40215 0.25761,14.40215 0,0 -21.01805,-33.66038 -21.01805,-33.66038 z"
       id="path896"
       inkscape:connector-curvature="0"
       inkscape:path-effect="#path-effect898"
       inkscape:original-d="m 136.19804,138.52178 0.75596,-15.11905 20.00448,34.37728 0.25761,14.40215 z"
       sodipodi:nodetypes="ccccc"
       transform="matrix(1.2386218,0,0,1.2386218,-4.9042073,-51.115997)" />
    <path
       style="fill:#0a71ac;fill-opacity:1;stroke:#0a71ac;stroke-width:0.26458332px;stroke-linecap:butt;stroke-linejoin:miter;stroke-opacity:1"
       d="m 66.14583,179.92187 c 0,0 33.167412,-3.59077 33.167412,-3.59077 0,0 0.188987,5.29167 0.188987,5.29167 0,0 6.236611,-0.75596 6.236611,-0.75596 0,0 0.18899,6.4256 0.18899,6.4256 0,0 5.02901,-0.47009 5.02901,-0.47009 0,0 -16.877966,36.21084 -16.877966,36.21084 0,0 -26.927405,-0.60136 -26.927405,-0.60136 0,0 17.907058,-32.54007 17.907058,-32.54007 0,0 -18.508416,1.87089 -18.508416,1.87089 0,0 -0.404281,-11.84075 -0.404281,-11.84075 z"
       id="path900"
       inkscape:connector-curvature="0"
       inkscape:path-effect="#path-effect902"
       inkscape:original-d="m 66.14583,179.92187 33.167412,-3.59077 0.188987,5.29167 6.236611,-0.75596 0.18899,6.4256 5.02901,-0.47009 -16.877966,36.21084 -26.927405,-0.60136 17.907058,-32.54007 -18.508416,1.87089 z"
       sodipodi:nodetypes="ccccccccccc"
       transform="matrix(1.2386218,0,0,1.2386218,-4.9042073,-51.115997)" />
    <path
       style="fill:#3a3c86;fill-opacity:1;stroke:#3a3c86;stroke-width:0.26458332px;stroke-linecap:butt;stroke-linejoin:miter;stroke-opacity:1"
       d="m 111.23577,186.83424 c 0,0 7.94015,3.11072 7.94015,3.11072 0,0 -16.62214,51.97931 -16.62214,51.97931 0,0 -8.541659,-18.87681 -8.541659,-18.87681 0,0 17.223649,-36.21322 17.223649,-36.21322 z"
       id="path904"
       inkscape:connector-curvature="0"
       inkscape:path-effect="#path-effect906"
       inkscape:original-d="m 111.23577,186.83424 7.94015,3.11072 -16.62214,51.97931 -8.541659,-18.87681 z"
       sodipodi:nodetypes="ccccc"
       transform="matrix(1.2386218,0,0,1.2386218,-4.9042073,-51.115997)" />
    <path
       style="fill:#deecea;fill-opacity:1;stroke:#e0ecea;stroke-width:0.26458332px;stroke-linecap:butt;stroke-linejoin:miter;stroke-opacity:1"
       d="m 67.151469,222.4318 c 0,0 26.648471,0.49169 26.648471,0.49169 0,0 -4.064196,9.865 -4.064196,9.865 0,0 -28.497308,-0.2495 -28.497308,-0.2495 0,0 5.913033,-10.10719 5.913033,-10.10719 z"
       id="path916"
       inkscape:connector-curvature="0"
       inkscape:path-effect="#path-effect918"
       inkscape:original-d="m 67.151469,222.4318 26.648471,0.49169 -4.064196,9.865 -28.497308,-0.2495 z"
       sodipodi:nodetypes="ccccc"
       transform="matrix(1.2386218,0,0,1.2386218,-4.9042073,-51.115997)" />
    <path
       style="fill:#334f59;fill-opacity:1;stroke:#334f59;stroke-width:0.26458332px;stroke-linecap:butt;stroke-linejoin:miter;stroke-opacity:1"
       d="m 93.993049,223.11183 c 0,0 8.823711,18.6034 8.823711,18.6034 0,0 -4.131709,9.98829 -4.131709,9.98829 0,0 -8.949307,-18.91503 -8.949307,-18.91503 0,0 4.257305,-9.67666 4.257305,-9.67666 z"
       id="path920"
       inkscape:connector-curvature="0"
       inkscape:path-effect="#path-effect922"
       inkscape:original-d="m 93.993049,223.11183 8.823711,18.6034 -4.131709,9.98829 -8.949307,-18.91503 z"
       sodipodi:nodetypes="ccccc"
       transform="matrix(1.2386218,0,0,1.2386218,-4.9042073,-51.115997)" />
    <path
       style="fill:#070a0b;fill-opacity:1;stroke:#070a0b;stroke-width:0.26458332px;stroke-linecap:butt;stroke-linejoin:miter;stroke-opacity:1"
       d="m 61.20472,232.78849 c 0,0 28.531024,0 28.531024,0 0,0 8.753075,19.10977 8.753075,19.10977 0,0 -29.867368,-0.13363 -29.867368,-0.13363 0,0 -7.416731,-18.97614 -7.416731,-18.97614 z"
       id="path924"
       inkscape:connector-curvature="0"
       inkscape:path-effect="#path-effect926"
       inkscape:original-d="m 61.20472,232.78849 h 28.531024 l 8.753075,19.10977 -29.867368,-0.13363 z"
       sodipodi:nodetypes="ccccc"
       transform="matrix(1.2386218,0,0,1.2386218,-4.9042073,-51.115997)" />
    <path
       style="fill:#334f59;fill-opacity:1;stroke:#334f59;stroke-width:0.26458332px;stroke-linecap:butt;stroke-linejoin:miter;stroke-opacity:1"
       d="m 120.47991,207.79762 c 0,0 2.88206,2.97656 2.88206,2.97656 0,0 -3.2737,17.48832 -3.2737,17.48832 0,0 -2.68437,-3.55509 -2.68437,-3.55509 0,0 3.07601,-16.90979 3.07601,-16.90979 z"
       id="path932"
       inkscape:connector-curvature="0"
       inkscape:path-effect="#path-effect934"
       inkscape:original-d="m 120.47991,207.79762 2.88206,2.97656 -3.2737,17.48832 -2.68437,-3.55509 z"
       sodipodi:nodetypes="ccccc"
       transform="matrix(1.2386218,0,0,1.2386218,-4.9042073,-51.115997)" />
    <path
       style="fill:#794e26;fill-opacity:1;stroke:#794e26;stroke-width:0.26458332px;stroke-linecap:butt;stroke-linejoin:miter;stroke-opacity:1"
       d="m 66.26327,128.54093 c 0,0 -4.558657,-2.52791 -4.558657,-2.52791 0,0 40.585187,-10.4416 40.585187,-10.4416 0,0 7.01786,3.87565 7.01786,3.87565 0,0 -43.04439,9.09386 -43.04439,9.09386 z"
       id="path940"
       inkscape:connector-curvature="0"
       inkscape:path-effect="#path-effect942"
       inkscape:original-d="m 66.26327,128.54093 -4.558657,-2.52791 40.585187,-10.4416 7.01786,3.87565 z"
       sodipodi:nodetypes="ccccc"
       transform="matrix(1.2386218,0,0,1.2386218,-4.9042073,-51.115997)" />
    <path
       style="fill:#c7784c;fill-opacity:1;stroke:#c7784c;stroke-width:0.26458332px;stroke-linecap:butt;stroke-linejoin:miter;stroke-opacity:1"
       d="m 61.494816,125.80322 c 0,0 0.115297,-26.390275 0.115297,-26.390275 0,0 3.712946,-1.140643 3.712946,-1.140643 0,0 -0.216666,-5.508331 -0.216666,-5.508331 0,0 31.655507,-9.698495 31.655507,-9.698495 0,0 0.389438,5.743175 0.389438,5.743175 0,0 4.429752,-1.018473 4.429752,-1.018473 0,0 0.7087,27.781242 0.7087,27.781242 0,0 -40.794974,10.2318 -40.794974,10.2318 z"
       id="path944"
       inkscape:connector-curvature="0"
       inkscape:path-effect="#path-effect946"
       inkscape:original-d="m 61.494816,125.80322 0.115297,-26.390275 3.712946,-1.140643 -0.216666,-5.508331 31.655507,-9.698495 0.389438,5.743175 4.429752,-1.018473 0.7087,27.781242 z"
       sodipodi:nodetypes="ccccccccc"
       transform="matrix(1.2386218,0,0,1.2386218,-4.9042073,-51.115997)" />
    <path
       style="fill:#5d3e20;fill-opacity:1;stroke:#5d3e20;stroke-width:0.26458332px;stroke-linecap:butt;stroke-linejoin:miter;stroke-opacity:1"
       d="m 61.610112,99.412945 c 0,0 -0.07131,-12.486796 -0.07131,-12.486796 0,0 39.288628,-13.697561 39.288628,-13.697561 0,0 0.75366,14.56159 0.75366,14.56159 0,0 -4.429758,1.018471 -4.429758,1.018471 0,0 -0.389438,-5.743173 -0.389438,-5.743173 0,0 -31.655506,9.698493 -31.655506,9.698493 0,0 0.216665,5.508331 0.216665,5.508331 0,0 -3.712941,1.140645 -3.712941,1.140645 z"
       id="path948"
       inkscape:connector-curvature="0"
       inkscape:path-effect="#path-effect950"
       inkscape:original-d="m 61.610112,99.412945 -0.07131,-12.486796 39.288628,-13.697561 0.75366,14.56159 -4.429758,1.018471 -0.389438,-5.743173 -31.655506,9.698493 0.216665,5.508331 z"
       sodipodi:nodetypes="ccccccccc"
       transform="matrix(1.2386218,0,0,1.2386218,-4.9042073,-51.115997)" />
    <path
       style="fill:#987847;fill-opacity:1;stroke:#987847;stroke-width:0.26458332px;stroke-linecap:butt;stroke-linejoin:miter;stroke-opacity:1"
       d="m 101.06964,73.520914 c 0,0 14.45761,23.895565 14.45761,23.895565 0,0 0.64956,19.481851 0.64956,19.481851 0,0 -3.16478,1.24133 -3.16478,1.24133 0,0 0.1098,-3.81838 0.1098,-3.81838 0,0 -4.19662,-2.11301 -4.19662,-2.11301 0,0 0.3494,-11.70472 0.3494,-11.70472 0,0 -4.43814,-3.020256 -4.43814,-3.020256 0,0 0.0668,3.474506 0.0668,3.474506 0,0 -3.0223,-1.634999 -3.0223,-1.634999 0,0 -0.81133,-25.801887 -0.81133,-25.801887 z"
       id="path952"
       inkscape:connector-curvature="0"
       inkscape:path-effect="#path-effect954"
       inkscape:original-d="m 101.06964,73.520914 14.45761,23.895565 0.64956,19.481851 -3.16478,1.24133 0.1098,-3.81838 -4.19662,-2.11301 0.3494,-11.70472 -4.43814,-3.020256 0.0668,3.474506 -3.0223,-1.634999 z"
       sodipodi:nodetypes="ccccccccccc"
       transform="matrix(1.2386218,0,0,1.2386218,-4.9042073,-51.115997)" />
    <path
       style="fill:#ffe9ac;fill-opacity:1;stroke:#ffe9ac;stroke-width:0.26458332px;stroke-linecap:butt;stroke-linejoin:miter;stroke-opacity:1"
       d="m 101.88097,99.322799 c 0,0 3.0223,1.635001 3.0223,1.635001 0,0 -0.0668,-3.474506 -0.0668,-3.474506 0,0 4.43814,3.020256 4.43814,3.020256 0,0 -0.3494,11.70472 -0.3494,11.70472 0,0 4.19662,2.11301 4.19662,2.11301 0,0 -0.1098,3.81838 -0.1098,3.81838 0,0 -1.91217,0.71349 -1.91217,0.71349 0,0 -0.47432,1.0111 -0.47432,1.0111 0,0 -8.07827,-4.28329 -8.07827,-4.28329 0,0 -0.6663,-16.258161 -0.6663,-16.258161 z"
       id="path956"
       inkscape:connector-curvature="0"
       inkscape:path-effect="#path-effect958"
       inkscape:original-d="m 101.88097,99.322799 3.0223,1.635001 -0.0668,-3.474506 4.43814,3.020256 -0.3494,11.70472 4.19662,2.11301 -0.1098,3.81838 -1.91217,0.71349 -0.47432,1.0111 -8.07827,-4.28329 z"
       sodipodi:nodetypes="ccccccccccc"
       transform="matrix(1.2386218,0,0,1.2386218,-4.9042073,-51.115997)" />
    <path
       style="fill:#a35d34;fill-opacity:1;stroke:#a35d34;stroke-width:0.26458332px;stroke-linecap:butt;stroke-linejoin:miter;stroke-opacity:1"
       d="m 75.878718,105.64955 c 0,0 10.441593,-2.88207 10.441593,-2.88207 0,0 0.236236,4.29948 0.236236,4.29948 0,0 -10.536086,2.88207 -10.536086,2.88207 0,0 -0.141743,-4.29948 -0.141743,-4.29948 z"
       id="path960"
       inkscape:connector-curvature="0"
       inkscape:path-effect="#path-effect962"
       inkscape:original-d="m 75.878718,105.64955 10.441593,-2.88207 0.236236,4.29948 -10.536086,2.88207 z"
       sodipodi:nodetypes="ccccc"
       transform="matrix(1.2386218,0,0,1.2386218,-4.9042073,-51.115997)" />
  </g>
</svg>
